<svg width="67" height="64" viewBox="0 0 67 64" fill="none" xmlns="http://www.w3.org/2000/svg">
<g id="Group 69585">
<path id="Vector" d="M26.2294 0.972046H26.5313C33.8404 1.13276 39.9886 3.65137 44.9758 8.52786C53.9327 17.2866 54.6175 31.2716 46.8039 40.9381C46.7782 40.97 46.7804 41.0004 46.8103 41.0291L48.9507 43.0733C48.9579 43.0802 48.9664 43.0857 48.9759 43.0894C48.9854 43.093 48.9955 43.0949 49.0058 43.0948C49.0161 43.0947 49.0262 43.0926 49.0357 43.0887C49.0452 43.0848 49.0539 43.0792 49.0611 43.0721C49.5202 42.6137 49.9908 42.1619 50.473 41.7166C51.1282 41.1127 51.6357 41.1373 52.2498 41.7265C55.9617 45.2852 59.6779 48.8395 63.3984 52.3892C64.001 52.9624 64.678 53.5799 65.1212 54.2145C66.0685 55.5757 66.4183 57.0493 66.1708 58.6351C65.4809 63.052 60.3485 65.3213 56.3621 63.025C55.9562 62.7904 55.4645 62.3977 54.8873 61.8466C51.0126 58.146 47.1414 54.4421 43.2736 50.7349C42.7712 50.2528 42.3075 49.8161 42.7199 49.1691C42.9896 48.7448 43.9339 47.9625 44.4606 47.4668C44.494 47.4349 44.4945 47.4033 44.4619 47.3721L42.3357 45.3353C42.3204 45.3207 42.3001 45.3119 42.2784 45.3105C42.2567 45.3092 42.2351 45.3153 42.2175 45.3279C32.6015 52.436 18.9862 52.2072 9.7184 44.7129C-0.211069 36.6823 -2.4426 22.8019 4.60785 12.3298C9.33556 5.30775 17.3958 1.09135 26.2294 0.972046ZM50.1865 25.7502C50.1865 19.7015 47.6768 13.9006 43.2095 9.62357C38.7423 5.34653 32.6833 2.94372 26.3656 2.94372C23.2374 2.94372 20.1398 3.53362 17.2497 4.67975C14.3596 5.82588 11.7336 7.5058 9.52162 9.62357C5.05432 13.9006 2.54462 19.7015 2.54462 25.7502C2.54462 28.7451 3.16077 31.7108 4.35788 34.4778C5.555 37.2448 7.30964 39.759 9.52162 41.8768C13.9889 46.1538 20.0479 48.5566 26.3656 48.5566C29.4938 48.5566 32.5914 47.9667 35.4815 46.8206C38.3716 45.6744 40.9976 43.9945 43.2095 41.8768C45.4215 39.759 47.1762 37.2448 48.3733 34.4778C49.5704 31.7108 50.1865 28.7451 50.1865 25.7502ZM47.5326 44.5322C47.5357 44.5292 47.5381 44.5257 47.5398 44.5218C47.5415 44.5179 47.5423 44.5138 47.5423 44.5096C47.5423 44.5054 47.5415 44.5012 47.5398 44.4973C47.5381 44.4935 47.5357 44.4899 47.5326 44.487L45.4777 42.5196C45.4746 42.5167 45.4709 42.5143 45.4669 42.5127C45.4628 42.5111 45.4585 42.5103 45.4541 42.5103C45.4497 42.5103 45.4454 42.5111 45.4413 42.5127C45.4373 42.5143 45.4336 42.5167 45.4305 42.5196L43.8862 43.9982C43.8831 44.0011 43.8806 44.0047 43.8789 44.0085C43.8772 44.0124 43.8764 44.0166 43.8764 44.0208C43.8764 44.025 43.8772 44.0291 43.8789 44.033C43.8806 44.0369 43.8831 44.0404 43.8862 44.0434L45.941 46.0107C45.9441 46.0137 45.9478 46.016 45.9518 46.0177C45.9559 46.0193 45.9602 46.0201 45.9646 46.0201C45.969 46.0201 45.9734 46.0193 45.9774 46.0177C45.9815 46.016 45.9851 46.0137 45.9882 46.0107L47.5326 44.5322ZM51.3724 43.6647C51.3693 43.6617 51.3656 43.6594 51.3616 43.6578C51.3575 43.6562 51.3532 43.6553 51.3488 43.6553C51.3444 43.6553 51.3401 43.6562 51.336 43.6578C51.332 43.6594 51.3283 43.6617 51.3252 43.6647L45.077 49.6467C45.0739 49.6497 45.0715 49.6532 45.0698 49.6571C45.0681 49.661 45.0673 49.6652 45.0673 49.6694C45.0673 49.6736 45.0681 49.6777 45.0698 49.6816C45.0715 49.6855 45.0739 49.689 45.077 49.692L46.7268 51.2714C46.7299 51.2744 46.7335 51.2767 46.7376 51.2783C46.7416 51.2799 46.746 51.2808 46.7504 51.2808C46.7548 51.2808 46.7591 51.2799 46.7632 51.2783C46.7672 51.2767 46.7709 51.2744 46.774 51.2714L53.0221 45.2894C53.0252 45.2864 53.0277 45.2829 53.0294 45.279C53.031 45.2751 53.0319 45.271 53.0319 45.2668C53.0319 45.2626 53.031 45.2584 53.0294 45.2545C53.0277 45.2507 53.0252 45.2471 53.0221 45.2442L51.3724 43.6647ZM62.254 54.1301C62.261 54.1234 62.2649 54.1143 62.2649 54.1049C62.2649 54.0954 62.261 54.0863 62.254 54.0796L54.5233 46.6782C54.5163 46.6715 54.5068 46.6678 54.497 46.6678C54.4871 46.6678 54.4776 46.6715 54.4706 46.6782L48.2297 52.6533C48.2228 52.66 48.2188 52.669 48.2188 52.6785C48.2188 52.688 48.2228 52.697 48.2297 52.7037L55.9604 60.1052C55.9674 60.1118 55.9769 60.1156 55.9868 60.1156C55.9966 60.1156 56.0061 60.1118 56.0131 60.1052L62.254 54.1301ZM57.6044 61.4444C58.6861 62.0447 60.0454 62.1344 61.2183 61.7507C63.8237 60.8995 64.9414 58.0127 63.6824 55.7016C63.6757 55.6895 63.6661 55.6791 63.6545 55.6712C63.6428 55.6633 63.6294 55.6581 63.6153 55.6561C63.6012 55.654 63.5867 55.6552 63.5732 55.6595C63.5596 55.6637 63.5473 55.671 63.5372 55.6807L57.5941 61.3682C57.5633 61.3985 57.5667 61.4239 57.6044 61.4444Z" fill="#CEB25D"/>
<path id="Vector_2" d="M31.1922 10.7615C32.1797 11.0543 33.13 11.4323 34.043 11.8956C34.0631 11.9054 34.0853 11.9103 34.1075 11.9099C34.1298 11.9095 34.1513 11.9037 34.1702 11.8931C34.8219 11.5249 35.4699 11.158 36.1139 10.7923C36.7987 10.4036 37.5001 10.2351 38.0821 10.7923C39.3625 12.0165 40.6421 13.2412 41.9208 14.4663C42.5657 15.0849 42.4963 15.6643 42.0428 16.4023C41.6497 17.0451 41.2536 17.6855 40.8545 18.3235C40.8305 18.362 40.8296 18.4014 40.8519 18.4416C41.341 19.3083 41.7328 20.2136 42.0274 21.1574C42.0329 21.1751 42.0432 21.1912 42.0571 21.2041C42.071 21.217 42.0882 21.2263 42.1071 21.2312C42.9498 21.4387 43.796 21.6457 44.6456 21.8523C45.061 21.9532 45.3582 22.1721 45.5372 22.5092C45.6443 22.7109 45.6982 23.0393 45.6991 23.4944C45.7008 25.0794 45.7047 26.6636 45.7107 28.247C45.7141 29.0293 45.3257 29.5148 44.5454 29.7034C43.7335 29.8993 42.922 30.1019 42.1109 30.311C42.0621 30.3241 42.0304 30.3532 42.0159 30.3983C41.7118 31.3372 41.317 32.2392 40.8314 33.1043C40.8216 33.1218 40.8168 33.1416 40.8175 33.1616C40.8181 33.1817 40.8242 33.2013 40.8352 33.2187C41.2103 33.8173 41.5808 34.4134 41.9465 35.0071C42.4411 35.809 42.5953 36.3834 41.8822 37.071C40.6926 38.2149 39.4991 39.3551 38.3018 40.4916C37.7416 41.0229 37.1224 41.3243 36.4197 40.927C35.66 40.4973 34.9162 40.0742 34.1882 39.6576C34.1532 39.6374 34.1135 39.6261 34.0727 39.6248C34.032 39.6235 33.9917 39.6323 33.9556 39.6503C33.0589 40.0963 32.1279 40.4625 31.1627 40.7487C31.1233 40.7601 31.0984 40.7851 31.0882 40.8237C30.8775 41.6281 30.6651 42.4276 30.451 43.2222C30.2133 44.1016 29.5375 44.2566 28.628 44.2566C26.9758 44.2582 25.3241 44.259 23.6729 44.259C22.6913 44.259 22.3817 43.6883 22.1441 42.8261C21.9616 42.1611 21.7878 41.4932 21.6225 40.8224C21.6178 40.8029 21.6079 40.785 21.5937 40.7703C21.5795 40.7556 21.5615 40.7448 21.5415 40.7388C20.5532 40.4485 19.6038 40.0697 18.6934 39.6023C18.675 39.5929 18.6545 39.5882 18.6337 39.5887C18.613 39.5891 18.5929 39.5946 18.5752 39.6048C17.9842 39.9352 17.3902 40.2714 16.7933 40.6134C15.8863 41.1324 15.2876 41.3157 14.5001 40.5654C13.2342 39.3584 11.9714 38.1485 10.7115 36.9357C10.1025 36.3502 10.3235 35.6909 10.7398 35.012C11.1166 34.397 11.4977 33.784 11.8831 33.1731C11.9046 33.1395 11.9054 33.1051 11.8857 33.0698C11.395 32.2088 11.007 31.3068 10.7218 30.3639C10.7151 30.342 10.7026 30.3222 10.6855 30.3063C10.6684 30.2903 10.6473 30.2788 10.6241 30.2728C9.89528 30.0875 9.16685 29.9075 8.43885 29.7329C7.48688 29.5053 7.04366 29.1425 7.03852 28.1966C7.02996 26.5714 7.03082 24.9466 7.04109 23.3222C7.04623 22.4686 7.38539 21.9926 8.22816 21.7835C9.03238 21.585 9.83575 21.3882 10.6383 21.1931C10.6828 21.1816 10.7119 21.1549 10.7256 21.1131C11.0177 20.1701 11.4082 19.2665 11.8973 18.4022C11.9195 18.3629 11.9187 18.3235 11.8947 18.2841C11.4562 17.5707 11.016 16.8627 10.574 16.16C10.1972 15.5614 10.2811 14.9984 10.8258 14.4712C12.0052 13.3289 13.1893 12.1908 14.378 11.0567C15.1257 10.3421 15.6473 10.197 16.5556 10.7136C17.2408 11.1022 17.9264 11.4901 18.6124 11.8771C18.63 11.8872 18.65 11.8927 18.6705 11.8932C18.691 11.8936 18.7113 11.8889 18.7293 11.8796C19.6423 11.4138 20.5939 11.0375 21.5839 10.7505C21.6028 10.7448 21.6198 10.7346 21.6333 10.7208C21.6468 10.707 21.6564 10.6901 21.661 10.6717C21.8392 9.94031 22.0297 9.21585 22.2327 8.49835C22.4948 7.57709 22.9072 7.24376 23.8823 7.24253C25.5901 7.24171 27.297 7.23802 29.0031 7.23146C29.9885 7.22777 30.3328 7.74929 30.5794 8.62381C30.7721 9.30769 30.952 9.99525 31.119 10.6865C31.1284 10.725 31.1528 10.7501 31.1922 10.7615ZM40.2545 29.2556C40.3599 28.9334 40.5629 28.6591 40.8866 28.5804C41.7842 28.3606 42.6856 28.1392 43.5909 27.9162C43.6294 27.9063 43.6487 27.8826 43.6487 27.8448V23.6961C43.6487 23.6551 43.6282 23.6297 43.587 23.6198C42.7614 23.4181 41.9353 23.2148 41.1089 23.0098C40.7735 22.9261 40.365 22.7146 40.2815 22.4181C39.9321 21.1865 39.4353 20.0135 38.7912 18.8991C38.6268 18.6162 38.5407 18.2313 38.6975 17.9717C39.1702 17.1903 39.6524 16.4105 40.144 15.6323C40.1663 15.597 40.162 15.5646 40.1312 15.5351L37.0864 12.6041C37.0716 12.5903 37.0526 12.5814 37.0322 12.5788C37.0119 12.5761 36.9912 12.5798 36.9734 12.5893C36.2274 13.0026 35.487 13.4245 34.7521 13.855C34.2935 14.1231 33.9235 14.0702 33.4392 13.8131C32.4071 13.2637 31.3233 12.8332 30.1876 12.5216C29.7444 12.3999 29.4283 12.2092 29.3127 11.7972C29.0738 10.9509 28.8506 10.108 28.6434 9.26833C28.639 9.24984 28.6281 9.23332 28.6125 9.22148C28.5968 9.20963 28.5774 9.20317 28.5573 9.20314H24.2214C24.1777 9.20314 24.1508 9.22364 24.1405 9.26464C23.9401 10.051 23.7307 10.8362 23.5123 11.6201C23.4069 11.9952 23.2142 12.3384 22.8404 12.4429C21.5557 12.8054 20.429 13.235 19.4603 13.732C18.8205 14.0604 18.552 14.1219 17.9405 13.7762C17.2279 13.3744 16.5196 12.9726 15.8156 12.5708C15.7932 12.5579 15.7669 12.5525 15.7408 12.5557C15.7148 12.5588 15.6904 12.5702 15.6717 12.5881L12.6308 15.4994C12.5957 15.5331 12.591 15.5704 12.6167 15.6114C13.319 16.729 13.7794 17.4695 13.9978 17.8327C14.2239 18.2103 14.1545 18.5437 13.9245 18.936C13.3396 19.9348 12.8775 21.0094 12.5383 22.1598C12.3264 22.8794 11.8549 22.915 11.0596 23.1131C10.4259 23.2697 9.79164 23.4251 9.157 23.5792C9.11075 23.5907 9.08763 23.619 9.08763 23.6641V27.8141C9.08768 27.829 9.09287 27.8435 9.1024 27.8553C9.11192 27.867 9.12524 27.8755 9.1403 27.8793C10.0242 28.0941 10.9055 28.3184 11.7842 28.5521C12.1491 28.6488 12.3735 28.8297 12.4574 29.0945C12.8882 30.4467 13.373 31.5992 13.9117 32.552C14.1776 33.0206 14.1751 33.3392 13.8963 33.7709C13.6804 34.1038 13.2462 34.8053 12.5936 35.8754C12.5705 35.9132 12.5752 35.9476 12.6077 35.9788L15.6602 38.8987C15.675 38.9125 15.694 38.9213 15.7142 38.9237C15.7344 38.9262 15.7547 38.9222 15.7719 38.9123C16.4631 38.5195 17.1513 38.1288 17.8365 37.7401C18.2617 37.5002 18.6574 37.3453 19.0788 37.5667C20.2573 38.1849 21.3852 38.6474 22.4627 38.9541C22.9624 39.0955 23.3131 39.2579 23.4365 39.729C23.6566 40.5654 23.8823 41.4026 24.1135 42.2406C24.1238 42.2783 24.1495 42.2972 24.1906 42.2972L28.5188 42.296C28.5659 42.296 28.595 42.2738 28.6061 42.2296C28.8057 41.4301 29.0129 40.633 29.2279 39.8385C29.3487 39.3924 29.66 39.107 30.1619 38.9824C31.2111 38.7208 32.2714 38.3063 33.3428 37.7389C33.8862 37.4498 34.2408 37.3822 34.756 37.6934C35.341 38.0443 36.0698 38.4564 36.9426 38.9295C36.9854 38.9533 37.0244 38.9484 37.0595 38.9147L40.0978 36.0021C40.1295 35.9718 40.1342 35.9382 40.1119 35.9013C39.6751 35.1772 39.2289 34.4589 38.7733 33.7463C38.554 33.4036 38.5249 33.0834 38.6859 32.7857C39.3856 31.4942 39.9085 30.3175 40.2545 29.2556Z" fill="#CEB25D"/>
<path id="Vector_3" d="M37.6658 25.7514C37.6658 28.6211 36.4751 31.3733 34.3557 33.4024C32.2362 35.4316 29.3617 36.5716 26.3643 36.5716C23.367 36.5716 20.4924 35.4316 18.3729 33.4024C16.2535 31.3733 15.0628 28.6211 15.0628 25.7514C15.0628 24.3305 15.3551 22.9234 15.9231 21.6107C16.491 20.2979 17.3235 19.1051 18.3729 18.1003C20.4924 16.0712 23.367 14.9312 26.3643 14.9312C27.8484 14.9312 29.3181 15.2111 30.6892 15.7548C32.0604 16.2986 33.3062 17.0956 34.3557 18.1003C35.4051 19.1051 36.2376 20.2979 36.8056 21.6107C37.3735 22.9234 37.6658 24.3305 37.6658 25.7514ZM21.7908 20.7047C22.1222 19.5633 22.9007 18.0713 23.9182 17.2854C23.9248 17.2802 23.9294 17.2729 23.9312 17.2648C23.933 17.2567 23.9319 17.2484 23.9281 17.2411C23.9243 17.2338 23.9181 17.2282 23.9104 17.225C23.9027 17.2219 23.8942 17.2215 23.8861 17.2239C22.3924 17.6224 21.0893 18.3346 19.9768 19.3604C19.9554 19.3801 19.9545 19.4006 19.9742 19.4219C20.4547 19.9368 20.993 20.3878 21.5891 20.7749C21.691 20.8413 21.7582 20.8179 21.7908 20.7047ZM28.8322 17.3063C29.8369 18.032 30.6257 19.6297 30.9597 20.7293C30.9646 20.7461 30.9736 20.7615 30.986 20.7742C30.9984 20.787 31.0138 20.7966 31.031 20.8024C31.0481 20.8082 31.0665 20.81 31.0845 20.8075C31.1025 20.8051 31.1196 20.7985 31.1344 20.7884C31.7237 20.3948 32.2624 19.9463 32.7506 19.4428C32.7823 19.41 32.781 19.378 32.7467 19.3468C31.6384 18.3407 30.3482 17.6335 28.8759 17.2251C28.8651 17.2224 28.8537 17.2232 28.8435 17.2276C28.8334 17.2319 28.825 17.2394 28.8199 17.2489C28.8148 17.2583 28.8133 17.2692 28.8155 17.2797C28.8177 17.2901 28.8236 17.2995 28.8322 17.3063ZM23.6664 21.7564C25.3648 22.3062 27.3651 22.3419 29.0802 21.7478C29.1238 21.733 29.1393 21.7043 29.1264 21.6617C28.6703 20.1021 26.8088 16.4096 24.7481 19.3136C24.2368 20.0344 23.8608 20.8212 23.6202 21.674C23.609 21.7158 23.6245 21.7433 23.6664 21.7564ZM20.9891 24.7502L21.1947 22.9089C21.1966 22.891 21.1929 22.873 21.1843 22.857C21.1756 22.8411 21.1622 22.8279 21.1458 22.8191C20.2363 22.3263 19.4209 21.717 18.6998 20.9913C18.6492 20.9397 18.6038 20.9438 18.5636 21.0036C17.8142 22.1352 17.3538 23.3677 17.1825 24.701C17.1765 24.7477 17.198 24.7711 17.2468 24.7711H20.966C20.9719 24.7711 20.9776 24.7689 20.9819 24.765C20.9862 24.7612 20.9888 24.7558 20.9891 24.7502ZM31.5442 22.9077L31.7408 24.7145C31.7451 24.7522 31.7669 24.7711 31.8063 24.7711H35.487C35.5384 24.7711 35.5606 24.7461 35.5538 24.6961C35.3756 23.3718 34.9174 22.1451 34.1792 21.0159C34.1312 20.9438 34.0768 20.9389 34.016 21.0012C33.3043 21.7228 32.497 22.3275 31.5943 22.8154C31.5566 22.8359 31.5399 22.8667 31.5442 22.9077ZM23.1525 23.7354L23.0536 24.7034C23.0493 24.7485 23.0712 24.7711 23.1191 24.7711H29.6069C29.654 24.7711 29.6758 24.7489 29.6724 24.7047L29.603 23.7293C29.6025 23.7211 29.6 23.7132 29.5957 23.7061C29.5915 23.699 29.5855 23.6929 29.5783 23.6883C29.5712 23.6836 29.563 23.6806 29.5543 23.6794C29.5457 23.6782 29.5369 23.6789 29.5285 23.6813C27.4285 24.293 25.328 24.2955 23.2271 23.6887C23.2188 23.6863 23.2101 23.6856 23.2016 23.6867C23.193 23.6878 23.1849 23.6908 23.1777 23.6952C23.1706 23.6997 23.1646 23.7057 23.1602 23.7126C23.1559 23.7196 23.1533 23.7274 23.1525 23.7354ZM31.5481 28.5791C31.5451 28.6043 31.5498 28.6298 31.5617 28.6523C31.5735 28.6748 31.5921 28.6934 31.6149 28.7058C32.5108 29.1904 33.3116 29.7915 34.0173 30.509C34.0278 30.5197 34.0407 30.528 34.0551 30.5331C34.0694 30.5383 34.0848 30.5402 34.1001 30.5388C34.1153 30.5374 34.1301 30.5326 34.1431 30.5249C34.1562 30.5172 34.1672 30.5067 34.1753 30.4942C34.917 29.3643 35.3744 28.1367 35.5474 26.8116C35.5486 26.8019 35.5477 26.792 35.5447 26.7826C35.5417 26.7733 35.5366 26.7646 35.5298 26.7573C35.5229 26.7499 35.5146 26.7441 35.5052 26.7401C35.4958 26.7361 35.4857 26.7341 35.4754 26.7341L31.8089 26.7366C31.7678 26.7366 31.7451 26.7563 31.7408 26.7956L31.5481 28.5791ZM21.1972 28.6025L20.9917 26.7907C20.9874 26.7547 20.9664 26.7366 20.9287 26.7366H17.2481C17.2386 26.7366 17.2292 26.7384 17.2206 26.7421C17.2119 26.7457 17.2042 26.7511 17.1979 26.7579C17.1916 26.7646 17.1868 26.7726 17.1839 26.7812C17.1811 26.7898 17.1802 26.799 17.1812 26.808C17.3577 28.1527 17.8262 29.3942 18.5867 30.5324C18.5916 30.5398 18.5983 30.5461 18.6062 30.5507C18.614 30.5553 18.6229 30.5581 18.632 30.559C18.6412 30.5598 18.6505 30.5586 18.6591 30.5555C18.6677 30.5524 18.6755 30.5474 18.6818 30.541C19.4072 29.8005 20.2316 29.1806 21.1548 28.6812C21.169 28.6735 21.1805 28.662 21.188 28.648C21.1955 28.634 21.1987 28.6182 21.1972 28.6025ZM29.5054 27.8202C29.516 27.8234 29.5273 27.8243 29.5383 27.8227C29.5493 27.8211 29.5598 27.8171 29.5689 27.8111C29.5781 27.805 29.5857 27.7971 29.5912 27.7878C29.5966 27.7785 29.5998 27.7681 29.6005 27.7575L29.6698 26.8325C29.675 26.7686 29.6442 26.7366 29.5773 26.7366H23.123C23.075 26.7366 23.0532 26.7596 23.0575 26.8055L23.1513 27.7821C23.1555 27.8206 23.177 27.8342 23.2155 27.8227C25.3121 27.2126 27.4088 27.2118 29.5054 27.8202ZM29.1444 29.8448C29.1501 29.8278 29.1486 29.8094 29.1401 29.7935C29.1317 29.7776 29.1171 29.7655 29.0994 29.7599C27.2914 29.1859 25.4821 29.1814 23.6716 29.7464C23.6245 29.7612 23.6073 29.7915 23.6202 29.8374C23.8249 30.5656 24.1328 31.2466 24.5439 31.8804C26.6919 35.194 28.5072 31.7144 29.1444 29.8448ZM21.7522 30.6898C21.7508 30.6847 21.7481 30.68 21.7444 30.6762C21.7406 30.6723 21.7359 30.6693 21.7307 30.6675C21.7254 30.6657 21.7197 30.6651 21.7141 30.6658C21.7085 30.6665 21.703 30.6684 21.6983 30.6713C21.0611 31.0608 20.4941 31.527 19.9973 32.0698C19.9691 32.101 19.9703 32.1309 20.0012 32.1596C21.1077 33.1805 22.3989 33.8841 23.8746 34.2703C23.8793 34.2716 23.8844 34.2713 23.8889 34.2695C23.8935 34.2677 23.8972 34.2644 23.8996 34.2603C23.902 34.2561 23.9029 34.2513 23.902 34.2467C23.9012 34.242 23.8988 34.2378 23.8951 34.2346C22.8613 33.2309 22.1471 32.0493 21.7522 30.6898ZM30.9725 30.7464C30.6141 31.8976 29.8921 33.3355 28.9144 34.1448C28.768 34.2662 28.7877 34.3002 28.9735 34.2469C30.4047 33.8369 31.6616 33.1412 32.7441 32.1596C32.7767 32.1301 32.778 32.0994 32.748 32.0674C32.253 31.5532 31.7044 31.0981 31.1023 30.7021C31.0912 30.6948 31.0785 30.69 31.0651 30.6884C31.0518 30.6867 31.0382 30.688 31.0255 30.6924C31.0129 30.6967 31.0014 30.7038 30.9922 30.7132C30.983 30.7226 30.9763 30.734 30.9725 30.7464Z" fill="#CEB25D"/>
</g>
</svg>
