<svg width="61" height="64" viewBox="0 0 61 64" fill="none" xmlns="http://www.w3.org/2000/svg">
<g id="Group 69583">
<path id="Vector" d="M44.7732 52.496L44.295 52.7954C44.2704 52.8109 44.2502 52.8321 44.2363 52.8569C44.2223 52.8817 44.2149 52.9095 44.2149 52.9377C44.2166 53.9993 44.2166 55.0579 44.2149 56.1137C44.2136 56.6556 44.0831 57.1617 43.4382 57.1617C29.6005 57.1625 15.7622 57.1633 1.9236 57.1641C1.15599 57.1641 0.960851 56.8226 0.960851 56.1224C0.95999 38.0858 0.95999 20.0492 0.960851 2.01262C0.960851 1.02529 0.898822 0.530396 2.06575 0.530396C12.8848 0.532045 23.696 0.532458 34.4995 0.531633C34.6717 0.531596 34.8371 0.596982 34.9596 0.713508C37.931 3.56083 40.9148 6.42175 43.9112 9.29629C44.3454 9.712 44.2149 9.98296 44.2149 10.4927C44.2149 17.3487 44.2149 24.2018 44.2149 31.052C44.2149 31.1452 44.2562 31.2166 44.339 31.2661C50.7228 35.0842 52.5773 42.6809 48.5544 48.7991C48.5407 48.8203 48.5349 48.8452 48.538 48.87C48.541 48.8947 48.5527 48.9177 48.5712 48.9352L50.361 50.6463C50.375 50.6598 50.3922 50.6699 50.411 50.6759C50.4298 50.6819 50.4499 50.6836 50.4696 50.681C50.6208 50.6587 50.7784 50.5894 50.9051 50.5733C51.4487 50.5057 51.8876 50.6323 52.2219 50.9531C54.6945 53.3237 57.1688 55.6926 59.6448 58.0599C60.023 58.4212 60.2582 58.728 60.3504 58.9804C60.6618 59.8292 60.203 60.3389 59.5543 60.965C58.8806 61.6157 58.2082 62.2678 57.5371 62.921C57.0675 63.378 56.6928 63.6539 56.4128 63.7488C55.6219 64.0185 55.0223 63.7141 54.4265 63.1437C51.9841 60.8078 49.5451 58.469 47.1096 56.1273C46.5729 55.6118 46.4238 55.0105 46.6625 54.3234C46.6695 54.3024 46.6704 54.28 46.6652 54.2587C46.66 54.2373 46.6487 54.2178 46.6328 54.2022L44.8636 52.5059C44.8361 52.4795 44.8059 52.4762 44.7732 52.496ZM7.93272 44.7013C6.71798 44.7038 6.75158 43.2092 7.8371 43.2117C10.7172 43.2208 16.2882 43.2204 24.5502 43.2105C24.5976 43.2105 24.6191 43.1878 24.6148 43.1424C24.427 41.3055 24.6501 39.5185 25.2842 37.7814C25.3015 37.7352 25.2842 37.7121 25.2325 37.7121C19.556 37.713 13.8794 37.7125 8.20281 37.7109C7.71821 37.7109 7.28788 37.753 7.0992 37.2754C6.84462 36.6295 7.28012 36.2299 7.96632 36.2287C13.9479 36.227 19.932 36.227 25.9187 36.2287C25.9653 36.2287 25.9997 36.2089 26.0221 36.1693C27.3644 33.8094 29.2877 32.0196 31.7922 30.7996C31.8792 30.7576 31.874 30.7365 31.7767 30.7365C23.7878 30.7374 15.8019 30.7345 7.819 30.7279C6.80585 30.7266 6.82007 29.4275 7.5683 29.2704C7.62688 29.2589 7.91291 29.2527 8.42638 29.2518C18.1659 29.2494 27.9054 29.2498 37.6449 29.2531C37.9861 29.2543 38.1967 29.5005 38.556 29.5253C39.9654 29.621 41.318 29.9274 42.6138 30.4445C42.6195 30.4468 42.6257 30.4476 42.6318 30.447C42.6379 30.4464 42.6438 30.4444 42.6489 30.4411C42.6541 30.4378 42.6582 30.4333 42.6611 30.4281C42.664 30.4229 42.6655 30.417 42.6654 30.4111L42.6642 10.7352C42.6642 10.7152 42.656 10.696 42.6414 10.6818C42.6269 10.6677 42.6072 10.6597 42.5866 10.6597C39.9038 10.6597 37.2314 10.6589 34.5693 10.6573C33.8055 10.6573 33.6388 10.3096 33.6414 9.62416C33.6475 7.11585 33.6466 4.59846 33.6388 2.072C33.6388 2.03489 33.6195 2.01633 33.5807 2.01633H2.57104C2.52796 2.01633 2.50642 2.03654 2.50642 2.07695V55.6238C2.50642 55.6666 2.52882 55.6881 2.57362 55.6881L42.5982 55.6831C42.6422 55.6831 42.6642 55.6621 42.6642 55.62L42.6719 53.6677C42.6718 53.6588 42.6696 53.6501 42.6653 53.6423C42.661 53.6344 42.6548 53.6277 42.6473 53.6227C42.6398 53.6177 42.6312 53.6146 42.6222 53.6136C42.6132 53.6126 42.6041 53.6137 42.5957 53.6169C38.074 55.2711 33.0638 54.6674 29.3058 51.6707C29.2732 51.6444 29.232 51.6299 29.1895 51.6299C22.1207 51.6291 15.0519 51.6291 7.98312 51.6299C7.74664 51.6299 7.39772 51.6448 7.26461 51.4666C6.83428 50.895 7.02166 50.144 7.8358 50.144C14.4351 50.1448 21.0296 50.1452 27.6194 50.1452C27.6267 50.1452 27.6339 50.1431 27.64 50.1394C27.6462 50.1356 27.6511 50.1302 27.6542 50.1239C27.6573 50.1175 27.6585 50.1105 27.6576 50.1035C27.6567 50.0966 27.6537 50.09 27.6491 50.0846C26.3025 48.5182 25.3859 46.7465 24.8991 44.7694C24.8935 44.7481 24.8807 44.7292 24.8627 44.7156C24.8447 44.7019 24.8226 44.6943 24.7996 44.6939C19.1566 44.6873 13.5343 44.6898 7.93272 44.7013ZM41.4623 9.18246C41.4706 9.1823 41.4787 9.17982 41.4856 9.17533C41.4924 9.17083 41.4978 9.16451 41.5009 9.15715C41.5041 9.14979 41.5049 9.14171 41.5034 9.13389C41.5018 9.12608 41.4978 9.11888 41.4921 9.11318L35.2568 3.14346C35.2508 3.13791 35.2433 3.13415 35.2351 3.13264C35.227 3.13113 35.2185 3.13194 35.2108 3.13496C35.2032 3.13799 35.1966 3.14309 35.1919 3.14966C35.1872 3.15623 35.1846 3.16396 35.1844 3.17192L35.1857 9.1404C35.1857 9.15122 35.1902 9.16161 35.1982 9.16927C35.2062 9.17692 35.217 9.18122 35.2284 9.18122L41.4623 9.18246ZM49.132 42.0178C49.132 40.5701 48.8342 39.1366 48.2556 37.7991C47.6769 36.4616 46.8288 35.2464 45.7596 34.2227C44.6904 33.199 43.4211 32.387 42.0241 31.833C40.6271 31.279 39.1299 30.9939 37.6178 30.9939C34.564 30.9939 31.6353 32.1553 29.476 34.2227C27.3166 36.2901 26.1035 39.094 26.1035 42.0178C26.1035 43.4654 26.4014 44.8989 26.98 46.2364C27.5587 47.5739 28.4068 48.7891 29.476 49.8128C31.6353 51.8802 34.564 53.0416 37.6178 53.0416C39.1299 53.0416 40.6271 52.7565 42.0241 52.2025C43.4211 51.6485 44.6904 50.8365 45.7596 49.8128C46.8288 48.7891 47.6769 47.5739 48.2556 46.2364C48.8342 44.8989 49.132 43.4654 49.132 42.0178ZM49.2359 51.6858C49.2391 51.6827 49.2417 51.679 49.2434 51.675C49.2451 51.6709 49.246 51.6665 49.246 51.6622C49.246 51.6578 49.2451 51.6534 49.2433 51.6494C49.2415 51.6453 49.239 51.6417 49.2357 51.6386L47.6402 50.1216C47.6369 50.1185 47.6331 50.1161 47.6288 50.1144C47.6246 50.1128 47.6201 50.1119 47.6155 50.1119C47.6109 50.1119 47.6064 50.1128 47.6021 50.1145C47.5979 50.1162 47.5941 50.1187 47.5908 50.1218L46.1102 51.5493C46.107 51.5524 46.1044 51.5561 46.1027 51.5601C46.101 51.5642 46.1001 51.5686 46.1001 51.5729C46.1001 51.5773 46.101 51.5817 46.1028 51.5857C46.1046 51.5898 46.1071 51.5934 46.1104 51.5965L47.7059 53.1135C47.7092 53.1166 47.713 53.119 47.7173 53.1207C47.7215 53.1223 47.726 53.1232 47.7306 53.1232C47.7352 53.1232 47.7397 53.1223 47.744 53.1206C47.7482 53.1189 47.752 53.1164 47.7553 53.1133L49.2359 51.6858ZM58.8883 59.5169C58.8944 59.511 58.8993 59.5041 58.9026 59.4964C58.9059 59.4887 58.9076 59.4805 58.9076 59.4722C58.9075 59.4639 58.9058 59.4557 58.9025 59.4481C58.8992 59.4404 58.8943 59.4335 58.8882 59.4276L51.1661 52.0602C51.1599 52.0543 51.1527 52.0497 51.1446 52.0465C51.1366 52.0434 51.1281 52.0418 51.1194 52.0418C51.1108 52.0418 51.1022 52.0434 51.0942 52.0466C51.0862 52.0498 51.079 52.0545 51.0728 52.0603L48.1064 54.9103C48.1003 54.9162 48.0955 54.9232 48.0922 54.9308C48.0889 54.9385 48.0872 54.9467 48.0872 54.955C48.0872 54.9633 48.0889 54.9715 48.0923 54.9791C48.0956 54.9868 48.1005 54.9937 48.1066 54.9996L55.8287 62.3671C55.8348 62.3729 55.8421 62.3775 55.8501 62.3807C55.8581 62.3839 55.8667 62.3855 55.8753 62.3855C55.884 62.3855 55.8926 62.3838 55.9005 62.3806C55.9085 62.3774 55.9158 62.3728 55.9219 62.3669L58.8883 59.5169Z" fill="#C5A33F"/>
<path id="Vector_2" d="M9.53128 14.5298C9.1634 14.9241 8.76753 15.3101 8.34367 15.6879C7.92238 16.064 7.56313 16.4785 6.97901 15.9873C6.51767 15.6001 6.76191 15.1361 7.13926 14.7736C10.5974 11.4446 14.0577 8.11801 17.5202 4.79394C18.072 4.2644 18.5036 4.53659 18.9818 4.9919C22.4063 8.24916 25.8115 11.5241 29.1973 14.8169C29.404 15.0181 29.5238 15.1979 29.5565 15.3563C29.6987 16.0356 28.7954 16.4562 28.2435 15.9452C27.7396 15.48 27.2063 14.9686 26.6437 14.4111C26.6144 14.3822 26.6002 14.388 26.6011 14.4284C26.6278 17.2369 26.6601 20.0484 26.698 22.8627C26.7083 23.5902 26.2521 23.7461 25.5659 23.751C20.7147 23.7857 15.8639 23.7861 11.0135 23.7523C10.1128 23.7461 9.6437 23.777 9.6437 22.7971C9.64456 20.0859 9.64456 17.3437 9.6437 14.5707C9.64354 14.5582 9.63948 14.5462 9.63204 14.536C9.6246 14.5258 9.61414 14.518 9.60201 14.5136C9.58988 14.5092 9.57664 14.5084 9.56403 14.5113C9.55141 14.5142 9.54 14.5206 9.53128 14.5298ZM16.8042 15.8958C17.7511 15.8661 18.6979 15.8644 19.6447 15.8908C21.3479 15.9391 21.4436 16.9833 21.4242 18.3492C21.4061 19.6327 21.397 20.919 21.397 22.2082C21.397 22.2262 21.4044 22.2435 21.4175 22.2563C21.4306 22.2691 21.4483 22.2762 21.4668 22.2762L25.049 22.2775C25.0571 22.2775 25.0651 22.2759 25.0726 22.2729C25.08 22.2699 25.0868 22.2655 25.0924 22.26C25.0981 22.2545 25.1025 22.2479 25.1055 22.2407C25.1085 22.2335 25.1099 22.2258 25.1098 22.2181L25.0348 12.9969C25.034 12.9596 25.0187 12.9246 24.9922 12.8991L18.2167 6.3937C18.1848 6.36236 18.153 6.36194 18.1211 6.39246L11.272 12.9375C11.2474 12.9611 11.2279 12.989 11.2146 13.0198C11.2013 13.0506 11.1944 13.0836 11.1944 13.1169V22.2193C11.1944 22.2273 11.1961 22.2352 11.1993 22.2425C11.2024 22.2499 11.2071 22.2566 11.213 22.2622C11.2189 22.2678 11.2259 22.2723 11.2335 22.2753C11.2412 22.2784 11.2495 22.2799 11.2578 22.2799L14.8503 22.275C14.8591 22.275 14.8678 22.2733 14.8758 22.2701C14.8839 22.2668 14.8912 22.2621 14.8974 22.2561C14.9035 22.2501 14.9083 22.243 14.9116 22.2352C14.9148 22.2274 14.9164 22.219 14.9162 22.2107C14.9102 20.6798 14.9106 19.158 14.9175 17.6452C14.9201 16.9808 15.0299 16.4575 15.6102 16.1246C15.8437 15.9902 16.2417 15.9139 16.8042 15.8958ZM19.8372 17.4436C19.8372 17.4271 19.8304 17.4114 19.8183 17.3998C19.8062 17.3882 19.7898 17.3817 19.7726 17.3817H16.529C16.5119 17.3817 16.4954 17.3882 16.4833 17.3998C16.4712 17.4114 16.4644 17.4271 16.4644 17.4436V22.1896C16.4644 22.206 16.4712 22.2218 16.4833 22.2334C16.4954 22.245 16.5119 22.2515 16.529 22.2515H19.7726C19.7898 22.2515 19.8062 22.245 19.8183 22.2334C19.8304 22.2218 19.8372 22.206 19.8372 22.1896V17.4436Z" fill="#C5A33F"/>
<path id="Vector_3" d="M47.8372 41.9967C47.8372 44.591 46.7608 47.079 44.8447 48.9134C42.9287 50.7478 40.33 51.7784 37.6204 51.7784C34.9107 51.7784 32.312 50.7478 30.396 48.9134C28.48 47.079 27.4036 44.591 27.4036 41.9967C27.4036 39.4024 28.48 36.9144 30.396 35.08C32.312 33.2456 34.9107 32.215 37.6204 32.215C40.33 32.215 42.9287 33.2456 44.8447 35.08C46.7608 36.9144 47.8372 39.4024 47.8372 41.9967ZM46.2993 41.9942C46.2993 39.7924 45.3858 37.6808 43.7596 36.1239C42.1334 34.567 39.9279 33.6923 37.6281 33.6923C35.3284 33.6923 33.1228 34.567 31.4966 36.1239C29.8705 37.6808 28.9569 39.7924 28.9569 41.9942C28.9569 43.0844 29.1812 44.164 29.6169 45.1712C30.0527 46.1785 30.6914 47.0937 31.4966 47.8646C32.3018 48.6355 33.2577 49.247 34.3098 49.6642C35.3618 50.0814 36.4894 50.2962 37.6281 50.2962C38.7668 50.2962 39.8944 50.0814 40.9465 49.6642C41.9985 49.247 42.9544 48.6355 43.7596 47.8646C44.5648 47.0937 45.2035 46.1785 45.6393 45.1712C46.0751 44.164 46.2993 43.0844 46.2993 41.9942Z" fill="#C5A33F"/>
<path id="Vector_4" d="M38.5094 36.8448C39.8586 37.0638 41.3796 38.1254 41.2025 39.5804C41.1444 40.0543 40.5021 40.3821 40.0744 40.1359C39.7151 39.9281 39.6389 39.2624 39.4554 38.9605C38.7989 37.8817 35.6418 37.9905 35.5746 39.495C35.5398 40.3042 36.5348 40.8944 37.2456 41.0948C38.4797 41.4437 39.7358 41.8408 40.5448 42.77C42.1821 44.6506 40.6792 46.8047 38.4836 47.1833C38.4328 47.1915 38.4095 47.22 38.4138 47.2686C38.4603 47.8427 38.4396 48.9055 37.6307 48.8771C36.7287 48.8461 36.8049 47.8167 36.8165 47.2414C36.8165 47.1969 36.7937 47.1709 36.748 47.1635C35.9115 47.029 35.2098 46.6661 34.6429 46.0747C34.1803 45.5922 33.7861 44.684 34.2022 44.0852C34.4517 43.7252 35.2232 43.6225 35.4157 44.1458C35.6638 44.8189 35.8344 45.4289 36.6886 45.6429C37.5738 45.8644 38.7472 45.8384 39.3843 45.127C40.5008 43.8786 38.3892 43.0014 37.5027 42.77C36.6119 42.5382 35.865 42.2062 35.2619 41.774C32.9177 40.0951 34.1105 37.2618 36.7351 36.8411C36.7559 36.8379 36.7749 36.8283 36.7892 36.8137C36.8034 36.7991 36.8122 36.7805 36.8139 36.7607C36.8381 36.5157 36.8497 36.2353 36.8488 35.9194C36.8463 34.8838 38.3776 34.8937 38.4073 35.8526C38.4203 36.2757 38.4272 36.5759 38.428 36.7533C38.4289 36.8061 38.456 36.8366 38.5094 36.8448Z" fill="#C5A33F"/>
</g>
</svg>
