<svg width="96" height="95" viewBox="0 0 96 95" fill="none" xmlns="http://www.w3.org/2000/svg">
<g id="Group 69571">
<circle id="Ellipse 8" cx="47.8559" cy="47.2425" r="46.6761" fill="#F7FDFF" stroke="#2EB3D0"/>
<circle id="Ellipse 9" cx="47.856" cy="47.2426" r="34.7763" fill="#2EB3D0"/>
<g id="Group 69587">
<path id="Vector" d="M66.8781 50.051L67.3864 51.6501C67.3925 51.6704 67.3928 51.692 67.3873 51.7124C66.8935 53.5566 66.4 55.3995 65.9069 57.2409C65.8255 57.5439 65.6064 57.9375 65.2496 58.4217C65.2412 58.433 65.2375 58.4471 65.2392 58.461C65.2409 58.475 65.2479 58.4877 65.2588 58.4966C65.5029 58.698 65.6266 58.92 65.63 59.1623C65.644 60.0819 65.6605 61.0001 65.6796 61.9169C65.6802 61.9483 65.6959 61.9638 65.7267 61.9632C66.0819 61.9582 66.7384 61.8976 66.7459 62.4354C66.7762 64.5568 66.8065 66.6782 66.8368 68.7996C66.8368 68.8311 66.8214 68.8468 66.7906 68.8468L65.8909 68.8518C65.8583 68.8518 65.8418 68.8355 65.8412 68.803L65.7554 63.0102C65.7551 62.9972 65.7497 62.9847 65.7403 62.9756C65.7308 62.9665 65.7181 62.9614 65.7049 62.9614L52.4714 63.0666C52.4653 63.0666 52.4593 63.0678 52.4538 63.0701C52.4482 63.0724 52.4432 63.0759 52.4389 63.0802C52.4347 63.0845 52.4314 63.0896 52.4291 63.0952C52.4269 63.1008 52.4258 63.1068 52.4259 63.1129L52.5126 68.7971C52.5132 68.828 52.498 68.8434 52.4672 68.8434H51.5624C51.551 68.8434 51.54 68.8388 51.5318 68.8306C51.5236 68.8224 51.5189 68.8113 51.5187 68.7996C51.4912 66.7669 51.4625 64.7316 51.4328 62.6937C51.4227 61.9969 51.8856 62.055 52.4242 62.0684C52.4327 62.0687 52.4411 62.0672 52.449 62.064C52.4568 62.0609 52.464 62.0562 52.47 62.0502C52.476 62.0442 52.4807 62.0371 52.4838 62.0292C52.4869 62.0213 52.4884 62.0129 52.4882 62.0045C52.4753 61.3525 52.4655 60.7002 52.4587 60.0477C52.4503 59.286 52.362 58.8897 52.9309 58.4916C52.9356 58.4884 52.9396 58.4843 52.9427 58.4796C52.9458 58.4748 52.9479 58.4694 52.9489 58.4638C52.95 58.4582 52.9499 58.4524 52.9486 58.4467C52.9474 58.4411 52.9451 58.4357 52.9418 58.431C52.4801 57.7784 52.1928 57.0552 52.08 56.2613C52.0788 56.2526 52.0756 56.2443 52.0706 56.2371C52.0657 56.2298 52.0591 56.2238 52.0515 56.2195C52.0438 56.2152 52.0353 56.2127 52.0265 56.2122C52.0177 56.2117 52.009 56.2132 52.0009 56.2167C51.6197 56.3783 51.2207 56.4608 50.9657 56.8235C50.8855 56.9374 50.6813 57.0667 50.353 57.2115C48.4588 58.0475 46.5663 58.8877 44.6755 59.7321C44.5549 59.786 44.4042 59.77 44.2236 59.6841C43.7683 59.4678 43.7262 59.1228 43.9029 58.6767C44.1293 58.1027 44.2025 57.5481 44.0586 56.9523C43.6328 55.1824 41.5927 54.403 40.0702 55.3608C39.099 55.9718 38.5873 57.2384 38.9652 58.3628C39.2387 59.1775 39.9726 59.7691 40.693 60.2884C40.9244 60.455 41.044 60.7816 40.9733 61.0593C40.9104 61.3068 40.7407 61.4925 40.4641 61.6165C38.2018 62.6303 35.946 63.6414 33.6967 64.6496C33.6782 64.6579 33.6571 64.6584 33.6382 64.6512C33.6193 64.6439 33.604 64.6294 33.5957 64.6109C31.1657 59.187 28.7379 53.7628 26.3124 48.3384C25.6584 46.8756 26.3326 45.7411 27.7524 45.248C27.7632 45.2442 27.7731 45.2383 27.7816 45.2307C27.7901 45.223 27.797 45.2137 27.8018 45.2034C27.8067 45.193 27.8094 45.1818 27.8099 45.1704C27.8104 45.159 27.8086 45.1476 27.8046 45.1369C27.6834 44.8187 27.5768 44.493 27.4847 44.1598C27.4544 44.0503 27.4544 43.9398 27.4847 43.8282C27.9454 42.1152 28.4049 40.4031 28.8633 38.6918C28.9834 38.2418 29.2187 37.7761 29.5694 37.2947C29.5777 37.2836 29.5816 37.2698 29.5804 37.256C29.5791 37.2422 29.5728 37.2293 29.5627 37.2198C29.2824 36.9564 29.2016 36.7224 29.1949 36.3185C29.1814 35.4757 29.1716 34.6386 29.1654 33.8071C29.1653 33.797 29.1632 33.787 29.1592 33.7778C29.1552 33.7685 29.1494 33.7601 29.1421 33.7532C29.1348 33.7462 29.1262 33.7407 29.1167 33.7371C29.1073 33.7335 29.0973 33.7318 29.0872 33.7322C28.445 33.7558 28.0882 33.7936 28.0789 33.0101C28.0503 30.6452 28.0203 28.2802 27.9889 25.9153C27.9883 25.8822 28.0049 25.8654 28.0385 25.8648L28.939 25.8522C28.9688 25.8522 28.9839 25.867 28.9845 25.8968L29.0745 32.6844C29.0748 32.6992 29.0808 32.7133 29.0914 32.7237C29.1019 32.7341 29.1161 32.7399 29.1309 32.7399L42.3703 32.6389C42.3746 32.6389 42.3788 32.6381 42.3828 32.6364C42.3867 32.6348 42.3903 32.6323 42.3933 32.6293C42.3962 32.6262 42.3986 32.6226 42.4001 32.6186C42.4017 32.6146 42.4024 32.6104 42.4023 32.6061L42.3139 25.9178C42.3139 25.8819 42.3319 25.8637 42.3678 25.8631L43.2641 25.8539C43.2911 25.8539 43.3048 25.8676 43.3054 25.8951C43.3418 28.2656 43.3738 30.6353 43.4013 33.0042C43.4097 33.7221 42.9005 33.6371 42.3872 33.627C42.3569 33.6264 42.3417 33.6413 42.3417 33.6716C42.3513 34.3651 42.3597 35.0566 42.367 35.7462C42.3745 36.4439 42.436 36.831 41.8889 37.1971C41.8836 37.2007 41.879 37.2054 41.8755 37.2108C41.872 37.2162 41.8696 37.2223 41.8685 37.2287C41.8674 37.235 41.8676 37.2416 41.8691 37.2479C41.8706 37.2541 41.8733 37.2601 41.8771 37.2653C42.1672 37.667 42.3891 38.1032 42.5429 38.574C42.5446 38.5796 42.5475 38.5847 42.5514 38.5891C42.5553 38.5935 42.56 38.597 42.5653 38.5995C42.5706 38.6019 42.5764 38.6032 42.5822 38.6033C42.5881 38.6034 42.5939 38.6023 42.5993 38.6001L49.5838 35.6898C49.5899 35.6874 49.5952 35.6833 49.599 35.678C49.6029 35.6728 49.6052 35.6665 49.6056 35.66C49.6061 35.6534 49.6047 35.6469 49.6015 35.6412C49.5984 35.6354 49.5937 35.6307 49.588 35.6275C47.0935 34.1698 47.1852 30.492 49.8026 29.2144C51.8705 28.2053 54.5384 29.3566 54.9196 31.7283C55.0083 32.2804 55.0237 32.8272 54.9659 33.3686C54.9649 33.3769 54.9661 33.3852 54.9694 33.3928C54.9727 33.4005 54.9779 33.4071 54.9846 33.412C54.9912 33.417 54.9991 33.4201 55.0073 33.4211C55.0156 33.422 55.0239 33.4207 55.0315 33.4174L61.5524 30.6931C61.5568 30.6912 61.5615 30.6902 61.5663 30.6901C61.5712 30.69 61.5759 30.6909 61.5804 30.6927C61.5849 30.6945 61.5889 30.6972 61.5924 30.7006C61.5958 30.704 61.5985 30.708 61.6003 30.7125C63.8704 36.1493 66.1448 41.5917 68.4233 47.0398C68.7891 47.9145 68.6609 48.6773 68.0387 49.3281C67.7365 49.6437 67.3275 49.8171 66.9092 49.9854C66.8784 49.9977 66.868 50.0196 66.8781 50.051ZM61.5465 47.0759C61.3537 45.8809 61.6786 44.4787 62.8594 43.8879C63.5243 43.5546 64.4079 43.5715 64.891 44.1783C65.0016 44.3169 65.1113 44.5564 65.2201 44.897C65.6594 46.2666 66.1007 47.6401 66.544 49.0175C66.5454 49.0222 66.5477 49.0265 66.5508 49.0302C66.554 49.034 66.5579 49.037 66.5623 49.0392C66.5667 49.0414 66.5715 49.0427 66.5765 49.043C66.5814 49.0434 66.5864 49.0427 66.5911 49.0411C67.3873 48.7667 67.8459 48.2458 67.4866 47.3865C65.3466 42.2616 63.2072 37.1427 61.0684 32.0296C61.0656 32.0227 61.0614 32.0165 61.0561 32.0113C61.0508 32.006 61.0446 32.0019 61.0377 31.999C61.0308 31.9962 61.0234 31.9948 61.016 31.9948C61.0086 31.9949 61.0012 31.9964 60.9944 31.9993C59.1978 32.7523 57.3973 33.5047 55.5929 34.2565C54.9465 34.5258 54.4424 34.844 54.0267 34.1934C53.8499 33.9165 53.9425 33.5554 53.9812 33.2213C54.0931 32.2493 53.9627 31.1299 53.148 30.4743C52.312 29.8027 51.4233 29.6464 50.4818 30.0055C48.3525 30.8168 48.1547 33.7524 50.1763 34.8246C50.3412 34.9121 50.8033 35.0417 50.9144 35.1705C51.3604 35.6898 51.0633 36.167 50.5222 36.39C48.4053 37.2619 46.2883 38.1347 44.1714 39.0083C44.1439 39.0195 44.1377 39.038 44.1529 39.0638C44.2244 39.1875 44.3153 39.3053 44.37 39.4265C45.1415 41.1389 45.9054 42.8522 46.6617 44.5663C46.6641 44.5721 46.6682 44.5772 46.6733 44.5808C46.6785 44.5845 46.6846 44.5866 46.691 44.587C46.6973 44.5874 46.7036 44.5859 46.7091 44.5828C46.7147 44.5798 46.7193 44.5752 46.7223 44.5696C48.2078 41.9413 51.9807 42.0347 53.2381 44.812C54.0443 46.592 53.2692 48.9603 51.3941 49.7598C50.7217 50.0468 49.9044 50.0948 49.1638 50.0325C49.159 50.0321 49.1542 50.033 49.1499 50.035C49.1455 50.037 49.1418 50.0401 49.139 50.044C49.1362 50.0479 49.1344 50.0525 49.1339 50.0572C49.1334 50.062 49.1341 50.0668 49.1361 50.0712L51.4471 55.3322C51.4583 55.3574 51.4769 55.3647 51.5027 55.354C54.8029 53.9755 58.1043 52.5955 61.4068 51.2142C61.6239 51.1233 61.8581 50.9774 62.1095 50.7765C62.1314 50.7591 62.1401 50.7367 62.1356 50.7092C61.9381 49.4967 61.7417 48.2856 61.5465 47.0759ZM41.3692 33.779C41.369 33.7502 41.3573 33.7227 41.3368 33.7024C41.3163 33.6822 41.2886 33.671 41.2598 33.6712L30.2804 33.7478C30.2662 33.7479 30.2521 33.7508 30.239 33.7564C30.2258 33.7619 30.2139 33.77 30.2039 33.7802C30.1939 33.7903 30.186 33.8023 30.1806 33.8155C30.1752 33.8288 30.1725 33.8429 30.1726 33.8571L30.1902 36.3701C30.1904 36.3989 30.202 36.4265 30.2225 36.4467C30.243 36.4669 30.2707 36.4781 30.2995 36.4779L41.2789 36.4013C41.2932 36.4012 41.3073 36.3983 41.3204 36.3927C41.3335 36.3872 41.3454 36.3791 41.3554 36.369C41.3655 36.3588 41.3734 36.3468 41.3787 36.3336C41.3841 36.3204 41.3868 36.3062 41.3867 36.292L41.3692 33.779ZM31.6364 44.318C32.303 44.0661 32.8582 43.6646 33.302 43.1136C33.4922 42.878 33.5368 42.6491 33.8406 42.5136C36.4277 41.3594 39.016 40.2022 41.6053 39.0419C41.635 39.0285 41.6451 39.006 41.6356 38.9746C41.4544 38.3989 41.1635 37.8858 40.7629 37.4353C40.741 37.4112 40.7138 37.3991 40.6812 37.3991L30.6879 37.4799C30.6475 37.4799 30.6155 37.4964 30.592 37.5295C30.2595 38 29.9624 38.4511 29.8068 39.0276C29.3646 40.6665 28.9267 42.2956 28.493 43.9148C28.4782 43.9704 28.4796 44.0291 28.4972 44.084C29.2008 46.2761 29.9061 48.4767 30.613 50.6856C30.7738 51.1881 31.3806 51.0643 31.6979 50.8455C32.2516 50.4634 32.4292 49.4543 32.3291 48.8534C32.0811 47.3638 31.8381 45.8727 31.6002 44.3803C31.5957 44.35 31.6078 44.3292 31.6364 44.318ZM40.9446 53.9982C43.5663 53.6607 45.5432 55.8733 45.0374 58.4419C45.0366 58.4463 45.037 58.4508 45.0385 58.4549C45.04 58.4591 45.0427 58.4627 45.0461 58.4655C45.0496 58.4683 45.0537 58.47 45.0581 58.4706C45.0625 58.4712 45.067 58.4706 45.0711 58.4688C46.6752 57.7479 48.2832 57.0263 49.8952 56.3042C50.321 56.1132 50.6308 55.8531 50.4128 55.3667C49.6469 53.6599 48.8808 51.9531 48.1143 50.2463C47.9746 49.936 47.9065 49.7007 47.9098 49.5402C47.9182 49.0327 48.3651 48.7903 48.8356 48.8501C49.4062 48.9219 49.9751 48.9104 50.5424 48.8156C51.5136 48.654 52.2307 47.8536 52.4242 46.9312C52.7962 45.1672 51.3487 43.5597 49.5274 43.8357C48.4597 43.9973 47.7199 44.6224 47.3081 45.7108C47.16 46.1019 46.8926 46.2517 46.506 46.1603C46.1803 46.0837 46.0659 45.8001 45.9362 45.5047C45.1188 43.6357 44.301 41.7668 43.4829 39.8978C43.3693 39.6386 43.2103 39.3996 42.9106 39.5343C40.0739 40.8079 37.2469 42.0742 34.4297 43.3333C34.3582 43.3652 34.297 43.4162 34.253 43.4806C33.8451 44.0686 33.3303 44.539 32.7086 44.892C32.6839 44.906 32.6738 44.9267 32.6783 44.9542C32.8629 46.0562 33.0425 47.1593 33.217 48.2635C33.3079 48.8369 33.3379 49.2751 33.307 49.5781C33.2313 50.3178 32.9283 51.22 32.2946 51.6459C31.6137 52.1046 30.5507 52.219 29.9734 51.5533C29.8337 51.3923 29.692 51.0859 29.5484 50.6343C29.0793 49.1592 28.6063 47.685 28.1294 46.2116C28.1216 46.1875 28.1053 46.1793 28.0806 46.1872C27.7513 46.2899 27.5033 46.4262 27.3366 46.5962C26.8796 47.0616 27.0404 47.5658 27.3004 48.1473C29.5638 53.2032 31.8283 58.2632 34.0939 63.3275C34.0994 63.3393 34.1093 63.3484 34.1215 63.353C34.1338 63.3575 34.1475 63.3571 34.1596 63.3519L39.7092 60.8649C39.7148 60.8624 39.7197 60.8585 39.7233 60.8535C39.7269 60.8485 39.7292 60.8427 39.7299 60.8365C39.7306 60.8304 39.7296 60.8242 39.7272 60.8186C39.7247 60.8129 39.7208 60.808 39.7159 60.8043C38.4383 59.8264 37.5976 58.6346 37.9132 56.9346C38.1875 55.4592 39.407 54.1968 40.9446 53.9982ZM60.6434 54.0588L59.8279 53.6742C59.8218 53.6714 59.8163 53.6673 59.8118 53.6624C59.8073 53.6574 59.8038 53.6516 59.8016 53.6453C59.7994 53.639 59.7985 53.6324 59.799 53.6258C59.7994 53.6191 59.8013 53.6127 59.8043 53.6069L60.1687 52.8991C60.2108 52.8183 60.1898 52.7953 60.1056 52.83L53.0756 55.758C53.0448 55.7709 53.0308 55.7936 53.0336 55.8262C53.1115 56.7867 53.4771 57.6174 54.1302 58.3182C54.1472 58.3365 54.1678 58.3511 54.1908 58.3611C54.2139 58.3711 54.2388 58.3763 54.264 58.3763L64.0604 58.3746C64.0752 58.3746 64.0899 58.371 64.1032 58.3642C64.1165 58.3573 64.1281 58.3473 64.1369 58.335C64.5367 57.7804 64.8649 57.2477 65.0501 56.5626C65.4731 54.9933 65.9004 53.4065 66.3319 51.8024C66.3506 51.7327 66.3488 51.6593 66.3268 51.5912C65.6316 49.4232 64.9326 47.2336 64.2295 45.0224C64.133 44.7211 63.9209 44.6027 63.5933 44.6672C62.6069 44.8617 62.3898 46.0458 62.5194 46.8748C62.7511 48.3504 62.9884 49.8289 63.2314 51.3101C63.2359 51.3387 63.2244 51.3581 63.1969 51.3682C62.3367 51.6891 61.6845 52.2448 61.2401 53.0354C61.0538 53.3676 60.8749 53.702 60.7032 54.0386C60.6897 54.065 60.6698 54.0717 60.6434 54.0588ZM64.5948 61.9397C64.6062 61.9395 64.6176 61.9372 64.6281 61.9327C64.6386 61.9281 64.6482 61.9216 64.6561 61.9134C64.6641 61.9052 64.6704 61.8954 64.6746 61.8848C64.6788 61.8741 64.6809 61.8627 64.6806 61.8513L64.6385 59.4586C64.6381 59.4359 64.6288 59.4143 64.6126 59.3984C64.5964 59.3825 64.5746 59.3736 64.5519 59.3736L53.5276 59.3761C53.5161 59.3761 53.5046 59.3784 53.494 59.3829C53.4834 59.3873 53.4738 59.3939 53.4657 59.4021C53.4576 59.4103 53.4513 59.4201 53.447 59.4308C53.4428 59.4415 53.4407 59.4529 53.4409 59.4645L53.4805 61.9405C53.4809 61.9633 53.4903 61.9851 53.5067 62.001C53.5231 62.0169 53.5451 62.0257 53.568 62.0255L64.5948 61.9397Z" fill="white"/>
<path id="Vector_2" d="M62.4851 25.9807L61.5697 25.9584C61.5479 25.9578 61.5297 25.9751 61.5292 25.9969L61.4699 28.4234C61.4693 28.4453 61.4866 28.4634 61.5085 28.4639L62.4239 28.4863C62.4457 28.4868 62.4638 28.4696 62.4644 28.4477L62.5237 26.0212C62.5242 25.9994 62.5069 25.9813 62.4851 25.9807Z" fill="white"/>
<path id="Vector_3" d="M58.2523 27.2826L57.4685 27.6872C57.4412 27.7012 57.4305 27.7347 57.4446 27.762L58.5447 29.8934C58.5588 29.9207 58.5923 29.9314 58.6196 29.9173L59.4033 29.5128C59.4306 29.4987 59.4413 29.4652 59.4272 29.438L58.3271 27.3065C58.313 27.2793 58.2795 27.2686 58.2523 27.2826Z" fill="white"/>
<path id="Vector_4" d="M66.6132 27.7264L65.804 27.3087C65.7833 27.2981 65.758 27.3062 65.7473 27.3268L64.6372 29.4777C64.6265 29.4984 64.6346 29.5237 64.6552 29.5344L65.4644 29.952C65.4851 29.9627 65.5105 29.9546 65.5211 29.934L66.6313 27.7831C66.6419 27.7624 66.6338 27.737 66.6132 27.7264Z" fill="white"/>
<path id="Vector_5" d="M37.186 64.9242L36.3588 65.3511C36.3436 65.359 36.3376 65.3777 36.3455 65.393L37.4656 67.5633C37.4735 67.5786 37.4923 67.5846 37.5076 67.5767L38.3347 67.1498C38.35 67.1419 38.356 67.1231 38.3481 67.1079L37.2279 64.9375C37.2201 64.9223 37.2013 64.9163 37.186 64.9242Z" fill="white"/>
<path id="Vector_6" d="M31.1369 65.3869L30.3172 64.9639C30.2994 64.9547 30.2776 64.9617 30.2684 64.9794L29.1529 67.1408C29.1437 67.1585 29.1507 67.1804 29.1684 67.1895L29.9881 67.6126C30.0059 67.6218 30.0277 67.6148 30.0369 67.597L31.1524 65.4357C31.1616 65.4179 31.1546 65.3961 31.1369 65.3869Z" fill="white"/>
<path id="Vector_7" d="M34.2177 66.3991L33.3006 66.3767C33.2792 66.3762 33.2615 66.3931 33.261 66.4144L33.2019 68.8291C33.2014 68.8505 33.2183 68.8683 33.2397 68.8688L34.1568 68.8912C34.1782 68.8917 34.1959 68.8748 34.1964 68.8534L34.2554 66.4387C34.256 66.4174 34.2391 66.3996 34.2177 66.3991Z" fill="white"/>
</g>
</g>
</svg>
