<svg width="66" height="62" viewBox="0 0 66 62" fill="none" xmlns="http://www.w3.org/2000/svg">
<g id="Group 69584">
<path id="Vector" d="M31.0722 0.973342C32.4556 0.279065 34.2244 0.409722 35.4834 1.41015C35.9516 1.78248 36.4168 2.15865 36.8788 2.53867C37.1705 2.77949 37.3583 2.98188 37.4421 3.14584C37.9331 4.10912 36.6327 5.03012 35.7978 4.34481C35.1128 3.78503 34.1775 2.84481 33.4149 2.63346C32.1479 2.28376 31.1659 3.45967 30.2842 4.16932C29.9738 4.41783 29.7008 4.55916 29.4653 4.59332C28.4659 4.73934 27.8906 3.47761 28.7107 2.78589C29.4493 2.16335 30.2975 1.36403 31.0722 0.973342Z" fill="#CEB25D"/>
<path id="Vector_2" d="M54.3683 7.13472C55.9658 7.8606 56.9644 8.98058 57.364 10.4947C57.4906 10.9754 57.5535 11.8243 57.5526 13.0412C57.5499 17.5109 57.5499 21.981 57.5526 26.4515C57.5526 26.8409 57.516 27.1193 57.4429 27.2867C57.1874 27.8708 56.4274 28.0604 55.8882 27.7158C55.5123 27.475 55.4132 27.1317 55.4132 26.6808C55.4097 21.7175 55.4021 16.7547 55.3905 11.7923C55.3878 10.8563 55.0453 10.0912 54.363 9.4968C53.7279 8.94343 52.951 8.66717 52.0323 8.66803C39.4004 8.68596 26.7681 8.69493 14.1353 8.69493C13.3981 8.69493 12.8 8.73335 12.1605 9.06384C11.4193 9.44727 10.914 10.0083 10.6446 10.747C10.5188 11.0929 10.4559 11.6253 10.4559 12.3444C10.4559 17.0745 10.4559 21.8042 10.4559 26.5335C10.4559 26.893 10.4136 27.1569 10.3288 27.3251C9.93148 28.1219 8.71797 28.0553 8.39285 27.2278C8.3429 27.1005 8.31748 26.9054 8.31659 26.6424C8.31302 21.6065 8.31347 16.5711 8.31793 11.5361C8.31882 10.9468 8.46376 10.3478 8.75275 9.7389C9.49397 8.17358 10.947 7.04634 12.7197 6.74531C13.0649 6.68639 13.9551 6.65693 15.3903 6.65693C27.7822 6.65437 40.1746 6.65522 52.5675 6.65949C53.0714 6.65949 53.6717 6.8179 54.3683 7.13472Z" fill="#CEB25D"/>
<path id="Vector_3" d="M38.3666 19.9801C38.974 19.9737 39.655 19.9315 40.2116 20.0916C41.9924 20.6065 42.9276 22.2538 42.4072 23.9498C42.0968 24.9643 41.3422 25.6612 40.1434 26.0403C39.8847 26.1223 39.2925 26.1437 38.3666 26.1044C38.3158 26.1027 38.2899 26.1261 38.289 26.1748C38.2792 29.0587 38.2783 31.0531 38.2863 32.1582C38.289 32.5757 38.1249 32.8998 37.794 33.1304C37.228 33.5249 36.6982 33.2137 36.254 32.7653C33.9702 30.4583 30.9585 29.4925 27.7046 29.235C27.6225 29.2282 27.5815 29.2645 27.5815 29.3439C27.5824 30.858 27.582 32.3559 27.5802 33.8375C27.5793 34.4694 27.5186 34.9562 27.3982 35.2978C26.4416 38.0172 22.389 38.0992 21.3601 35.3874C21.2317 35.0501 21.1661 34.513 21.1634 33.776C21.1572 32.1569 21.1567 30.5335 21.1621 28.9058C21.1621 28.852 21.1358 28.8161 21.0832 28.7982C15.1708 26.7077 15.6498 18.5544 21.7668 17.0865C22.244 16.9712 22.9148 16.9118 23.7791 16.9084C25.4007 16.9007 27.2296 16.9558 28.6639 16.779C30.0857 16.6031 31.4588 16.2368 32.7834 15.68C34.1124 15.1215 35.358 14.2449 36.5203 13.0502C36.6915 12.8751 36.9118 12.7901 37.1812 12.7953C37.8328 12.8081 38.2903 13.2705 38.289 13.9058C38.2828 16.5309 38.2823 18.5309 38.2877 19.9058C38.2877 19.9554 38.314 19.9801 38.3666 19.9801ZM35.949 29.8114C35.973 29.8516 35.9895 29.8746 35.9985 29.8806C36.0957 29.9481 36.1443 29.9284 36.1443 29.8217V16.2859C36.1443 16.1962 36.1055 16.177 36.0279 16.2282C33.5117 17.89 30.719 18.7799 27.6497 18.8977C27.6314 18.8984 27.614 18.9058 27.6013 18.9185C27.5886 18.9312 27.5815 18.948 27.5815 18.9656V27.1291C27.5815 27.1667 27.6007 27.1863 27.639 27.1881C30.6351 27.3144 33.3855 28.1684 35.8901 29.75C35.9142 29.7653 35.9338 29.7858 35.949 29.8114ZM25.4408 27.115V18.9784C25.4408 18.9734 25.4398 18.9684 25.4378 18.9637C25.4357 18.9591 25.4328 18.9548 25.4291 18.9513C25.4253 18.9477 25.4209 18.9449 25.416 18.9429C25.4112 18.941 25.4059 18.94 25.4007 18.94H23.3523C22.2037 18.94 21.1021 19.3705 20.2899 20.1368C19.4777 20.9031 19.0214 21.9425 19.0214 23.0262V23.0672C19.0214 24.151 19.4777 25.1903 20.2899 25.9566C21.1021 26.723 22.2037 27.1535 23.3523 27.1535H25.4007C25.4059 27.1535 25.4112 27.1525 25.416 27.1505C25.4209 27.1486 25.4253 27.1458 25.4291 27.1422C25.4328 27.1386 25.4357 27.1344 25.4378 27.1297C25.4398 27.1251 25.4408 27.1201 25.4408 27.115ZM38.2823 22.0655L38.285 24.0228C38.285 24.0367 38.2908 24.0501 38.3011 24.06C38.3113 24.0698 38.3253 24.0753 38.3398 24.0753L39.3353 24.0741C39.6237 24.0737 39.9003 23.9665 40.104 23.776C40.3077 23.5855 40.422 23.3273 40.4217 23.0583V23.025C40.4215 22.8917 40.3932 22.7598 40.3384 22.6368C40.2836 22.5138 40.2033 22.402 40.1022 22.3079C40.001 22.2139 39.881 22.1393 39.749 22.0884C39.6169 22.0376 39.4754 22.0115 39.3326 22.0117L38.3372 22.013C38.3226 22.013 38.3087 22.0185 38.2984 22.0284C38.2881 22.0382 38.2823 22.0516 38.2823 22.0655ZM25.3753 29.1889H23.3657C23.3472 29.1889 23.3295 29.1959 23.3165 29.2084C23.3034 29.2209 23.2961 29.2378 23.2961 29.2555V34.2871C23.2961 34.567 23.4087 34.8355 23.6092 35.0335C23.8097 35.2314 24.0816 35.3426 24.3651 35.3426H24.3758C24.5162 35.3426 24.6552 35.3153 24.7849 35.2623C24.9146 35.2092 25.0325 35.1315 25.1317 35.0335C25.231 34.9354 25.3097 34.8191 25.3635 34.691C25.4172 34.563 25.4448 34.4257 25.4448 34.2871V29.2555C25.4448 29.2468 25.443 29.2381 25.4395 29.23C25.436 29.2219 25.4309 29.2146 25.4244 29.2084C25.418 29.2022 25.4103 29.1973 25.4019 29.194C25.3934 29.1906 25.3844 29.1889 25.3753 29.1889Z" fill="#CEB25D"/>
<path id="Vector_4" d="M47.4589 16.9951L45.273 18.0569C44.7682 18.302 44.5666 18.8926 44.8227 19.3758L44.859 19.4444C45.1151 19.9276 45.7319 20.1207 46.2367 19.8755L48.4226 18.8138C48.9273 18.5686 49.1289 17.978 48.8729 17.4948L48.8365 17.4262C48.5805 16.943 47.9637 16.75 47.4589 16.9951Z" fill="#CEB25D"/>
<path id="Vector_5" d="M47.9651 22.0352L45.7415 22.0241C45.1844 22.0213 44.7304 22.4515 44.7274 22.9849L44.7269 23.0848C44.724 23.6182 45.1733 24.0529 45.7304 24.0557L47.954 24.0668C48.5112 24.0696 48.9652 23.6395 48.9681 23.106L48.9686 23.0061C48.9716 22.4727 48.5223 22.038 47.9651 22.0352Z" fill="#CEB25D"/>
<path id="Vector_6" d="M3.76493 26.2965C12.8575 33.7824 22.0072 41.2918 31.214 48.8247C31.7211 49.2397 32.073 49.5983 32.7326 49.6662C33.2722 49.7226 33.7588 49.5727 34.1923 49.2166C43.5221 41.5599 52.8493 33.9037 62.1738 26.2478C62.1896 26.235 62.2024 26.2191 62.2113 26.2012C62.2202 26.1833 62.2251 26.1638 62.2256 26.144C62.2261 26.1241 62.2222 26.1044 62.2142 26.0861C62.2062 26.0678 62.1943 26.0513 62.1792 26.0378C61.5842 25.5092 60.9724 24.9929 60.3435 24.4891C60.0795 24.2773 59.9083 24.104 59.8298 23.969C59.2531 22.9776 60.5643 21.9848 61.4781 22.7278C63.0582 24.0126 64.3975 24.9144 64.8698 26.7295C64.9857 27.1753 65.0437 28.0245 65.0437 29.2773C65.0428 38.4361 65.0348 47.5949 65.0196 56.7538C65.0169 58.5129 64.3194 59.9087 62.9271 60.9412C61.7738 61.7969 60.6151 61.9813 59.0377 61.9813C41.4162 61.983 23.7952 61.98 6.17455 61.9724C3.74084 61.9724 1.63895 60.425 1.01279 58.1743C0.887027 57.7234 0.824144 57.0488 0.824144 56.1504C0.82236 46.7969 0.825035 37.4442 0.832171 28.0924C0.833509 25.5267 2.40023 24.2547 4.35228 22.7624C5.57649 21.8273 6.89302 23.3503 5.6581 24.3777C5.11223 24.832 4.48117 25.3559 3.76493 25.9494C3.62489 26.0655 3.62489 26.1812 3.76493 26.2965ZM3.13208 28.4562C3.11335 28.4135 3.09953 28.3905 3.09061 28.387C3.00676 28.3537 2.96484 28.3811 2.96484 28.469C2.96216 38.0335 2.96216 47.5843 2.96484 57.1214C2.96573 57.4929 3.10577 57.8917 3.38495 58.3178C3.40903 58.3554 3.43847 58.3596 3.47326 58.3306L21.3922 43.624C21.4564 43.571 21.4564 43.5185 21.3922 43.4664C15.3358 38.4989 9.26473 33.5164 3.17891 28.519C3.15839 28.5019 3.14279 28.481 3.13208 28.4562ZM62.5297 28.6663C56.5046 33.6065 50.4861 38.5399 44.4743 43.4664C44.4628 43.4757 44.4536 43.4873 44.4473 43.5004C44.441 43.5135 44.4378 43.5277 44.4378 43.5422C44.4378 43.5567 44.441 43.571 44.4473 43.5842C44.4536 43.5975 44.4628 43.6093 44.4743 43.6189L62.3959 58.3306C62.4361 58.3639 62.4695 58.3588 62.4963 58.3152C62.7647 57.8763 62.899 57.3985 62.899 56.8819C62.9026 47.4241 62.9039 37.969 62.903 28.5164C62.903 28.2816 62.8473 28.2628 62.7358 28.4601C62.7099 28.5062 62.6412 28.5749 62.5297 28.6663ZM7.53121 59.9408C24.9297 59.951 42.3278 59.9446 59.7254 59.9216C60.0786 59.9207 60.3993 59.8763 60.6874 59.7883C60.702 59.7837 60.7151 59.7755 60.7253 59.7644C60.7355 59.7534 60.7424 59.7399 60.7454 59.7255C60.7484 59.711 60.7473 59.696 60.7423 59.6821C60.7373 59.6682 60.7285 59.6558 60.7168 59.6461L42.7979 44.9357C42.7604 44.9049 42.7229 44.9049 42.6855 44.9357C40.3682 46.8456 38.0094 48.7222 35.7228 50.6654C34.0973 52.0475 31.9111 52.0988 30.2895 50.7691C27.9169 48.8238 25.5452 46.8767 23.1744 44.928C23.1449 44.9032 23.115 44.9032 23.0847 44.928L5.14835 59.65C5.13504 59.661 5.12519 59.6754 5.11989 59.6914C5.1146 59.7075 5.11408 59.7247 5.11838 59.741C5.12268 59.7573 5.13164 59.7722 5.14425 59.784C5.15687 59.7957 5.17265 59.8039 5.18983 59.8075C5.9859 59.9689 6.72176 59.9395 7.53121 59.9408Z" fill="#CEB25D"/>
<path id="Vector_7" d="M48.4212 27.2797L46.2353 26.218C45.7306 25.9728 45.1138 26.1658 44.8577 26.6491L44.8214 26.7176C44.5653 27.2009 44.7669 27.7914 45.2717 28.0366L47.4575 29.0983C47.9623 29.3435 48.5791 29.1505 48.8352 28.6672L48.8715 28.5987C49.1276 28.1154 48.926 27.5249 48.4212 27.2797Z" fill="#CEB25D"/>
</g>
</svg>
