<svg width="96" height="95" viewBox="0 0 96 95" fill="none" xmlns="http://www.w3.org/2000/svg">
<g id="Group 69571">
<circle id="Ellipse 8" cx="47.8559" cy="47.5964" r="46.6761" fill="#F7FDFF" stroke="#2EB3D0"/>
<circle id="Ellipse 9" cx="47.856" cy="47.5965" r="34.7763" fill="#2EB3D0"/>
<g id="Group 69586">
<path id="Vector" d="M50.8337 67.3558C51.2673 66.5568 51.7046 65.7604 52.1455 64.9665C52.3908 64.525 52.5927 64.2439 52.7511 64.1232C53.2045 63.779 53.6417 63.8492 54.211 64.0099C55.1261 64.2676 56.0379 64.5247 56.9462 64.7812C56.9526 64.7829 56.9593 64.7829 56.9656 64.781C56.9719 64.7791 56.9776 64.7755 56.982 64.7706C56.9864 64.7657 56.9893 64.7596 56.9905 64.7532C56.9916 64.7467 56.9909 64.74 56.9885 64.7339L52.6141 54.2808C52.6028 54.2537 52.5828 54.2427 52.5541 54.2478C52.1464 54.316 51.7976 54.4717 51.5078 54.7147C50.4122 55.6326 49.4729 56.3972 48.6897 57.0085C48.5989 57.0789 48.5315 57.1669 48.4875 57.2723C46.9144 61.0237 45.3432 64.7762 43.774 68.5298C43.5896 68.9721 43.4052 69.2301 42.9197 69.2368C42.6 69.2408 42.3632 69.1063 42.2093 68.8334C41.5236 67.6177 40.843 66.397 40.1675 65.1711C40.1632 65.1634 40.1563 65.1574 40.148 65.1541C40.1398 65.1507 40.1306 65.1502 40.1219 65.1525C38.8284 65.519 37.5332 65.8847 36.2363 66.2495C35.9039 66.3425 35.6502 66.3502 35.3711 66.132C34.9778 65.8241 34.9981 65.4274 35.1875 64.9741C36.6953 61.3699 38.2039 57.7646 39.7133 54.1582C39.7159 54.152 39.717 54.1453 39.7166 54.1386C39.7161 54.132 39.7141 54.1255 39.7107 54.1198C39.7074 54.1141 39.7027 54.1093 39.6971 54.1058C39.6915 54.1024 39.6852 54.1003 39.6787 54.0998C39.2045 54.053 38.7263 54.0082 38.2442 53.9653C37.7232 53.9191 37.3217 53.848 37.0398 53.7522C35.9341 53.375 35.1988 52.6417 34.834 51.5523C34.7297 51.2405 34.6474 50.7395 34.587 50.0493C34.5058 49.128 34.4272 48.3135 34.3511 47.6058C34.3009 47.1401 34.1224 46.7223 33.8157 46.3524C33.2383 45.656 32.6603 44.9597 32.0818 44.2633C31.7548 43.8692 31.5261 43.5362 31.3959 43.2644C30.9104 42.2467 30.9095 41.2385 31.3933 40.2399C31.5343 39.9484 31.8095 39.5565 32.2188 39.0643C32.7573 38.4169 33.2935 37.7685 33.8275 37.1189C34.1929 36.6749 34.3138 36.2622 34.3747 35.6456C34.4621 34.7682 34.5476 33.8911 34.631 33.0143C34.6761 32.5401 34.748 32.1666 34.8467 31.8937C35.2341 30.8263 35.9609 30.111 37.0271 29.7479C37.3164 29.6492 37.7396 29.5762 38.2966 29.5289C39.779 29.4031 40.7562 29.3053 41.2281 29.2354C41.5416 29.1891 41.8783 29.0174 42.238 28.7203C42.8718 28.197 43.5041 27.6724 44.1351 27.1463C44.6262 26.7364 45.0178 26.4601 45.3099 26.3174C46.3226 25.8223 47.3389 25.8229 48.359 26.3191C48.6415 26.4567 49.0068 26.7118 49.4551 27.0845C50.108 27.6275 50.7633 28.1674 51.4207 28.7042C52.0466 29.2151 52.4712 29.2472 53.3711 29.3352C54.0387 29.3995 54.706 29.4629 55.3731 29.5255C55.9392 29.5779 56.3697 29.6557 56.6646 29.7589C57.7337 30.1333 58.4529 30.8548 58.8222 31.9233C58.9242 32.2176 59.0023 32.6563 59.0565 33.2393C59.1382 34.124 59.2251 35.0079 59.317 35.8909C59.3626 36.3312 59.525 36.7226 59.8041 37.0648C60.3889 37.7804 60.975 38.4948 61.5625 39.208C61.911 39.6321 62.1504 39.9825 62.2806 40.2594C62.743 41.2427 62.7449 42.2317 62.2865 43.2264C62.1647 43.4919 61.9522 43.8097 61.6488 44.1796C61.0105 44.9577 60.3714 45.7341 59.7314 46.5089C59.5081 46.779 59.3719 47.1378 59.3229 47.5856C59.2428 48.3118 59.1695 49.0389 59.103 49.7668C59.0274 50.598 58.9479 51.1545 58.8645 51.4364C58.4128 52.9622 57.2076 53.7869 55.6395 53.9459C55.0858 54.0022 54.54 54.0519 54.002 54.0947C53.9933 54.0953 53.9847 54.098 53.9772 54.1026C53.9697 54.1072 53.9634 54.1136 53.9588 54.1211C53.9542 54.1287 53.9516 54.1372 53.951 54.146C53.9504 54.1548 53.952 54.1636 53.9555 54.1717C55.4982 57.8576 57.0415 61.5464 58.5854 65.238C58.6688 65.437 58.6361 65.6634 58.4873 65.9171C58.2251 66.3637 57.7861 66.3502 57.3065 66.2148C56.0548 65.8619 54.7991 65.5069 53.5394 65.15C53.5306 65.1473 53.5211 65.1478 53.5125 65.1513C53.5039 65.1549 53.4967 65.1613 53.492 65.1694C52.8363 66.366 52.1774 67.5641 51.5154 68.764C51.2516 69.2419 50.6857 69.3933 50.2544 69.0863C50.132 68.9994 50.0164 68.8269 49.9076 68.5687C49.1391 66.7418 48.3742 64.9137 47.613 63.0846C47.5222 62.8658 47.4886 62.6868 47.5123 62.5475C47.591 62.0832 48.2524 61.876 48.5738 62.2075C48.6477 62.2842 48.7384 62.4539 48.8461 62.7167C49.4822 64.2678 50.1309 65.8137 50.7923 67.3541C50.8047 67.384 50.8185 67.3846 50.8337 67.3558ZM41.4709 53.0079C42.0283 53.0908 42.5687 53.4122 43.055 53.8072C43.7847 54.4009 44.5123 54.9972 45.238 55.596C45.9578 56.1897 46.7164 56.4638 47.6079 56.1153C47.8611 56.0161 48.2349 55.7615 48.7294 55.3516C49.3643 54.8255 50.0003 54.3008 50.6375 53.7775C51.3674 53.1787 51.9646 53.0147 52.9761 52.9148C53.7379 52.8393 54.5002 52.7654 55.2631 52.6933C55.8039 52.6419 56.1935 52.5644 56.432 52.4607C57.3243 52.0708 57.6592 51.3451 57.754 50.3902C57.847 49.4446 57.9372 48.4987 58.0246 47.5526C58.0928 46.8088 58.3395 46.181 58.7647 45.669C59.4125 44.8881 60.0579 44.1043 60.7007 43.3177C61.2893 42.5971 61.5397 41.8444 61.1938 40.9563C61.1013 40.7206 60.8952 40.4091 60.5755 40.0217C60.0477 39.3828 59.5214 38.7429 58.9964 38.1018C58.5135 37.5122 58.1312 36.9109 58.061 36.2309C57.9708 35.3597 57.8856 34.4886 57.8055 33.6174C57.7385 32.8906 57.6505 32.3997 57.5417 32.1449C57.3218 31.6295 56.9488 31.2593 56.4227 31.0344C56.1774 30.9295 55.7799 30.8511 55.2301 30.7992C54.6195 30.7412 54.0088 30.6828 53.3982 30.6242C52.324 30.5201 51.5417 30.455 50.8354 29.879C50.1329 29.3061 49.4328 28.7299 48.7353 28.1502C48.2482 27.7454 47.8783 27.4916 47.6257 27.389C47.0945 27.1748 46.5625 27.1764 46.0297 27.3941C45.781 27.4956 45.423 27.7412 44.9555 28.1308C44.4035 28.5898 43.8495 29.0462 43.2935 29.5001C42.5222 30.1302 41.9487 30.4702 41.0277 30.559C40.1464 30.6442 39.2648 30.7271 38.3829 30.8077C37.8613 30.8551 37.4819 30.9295 37.2445 31.031C36.7167 31.2571 36.3395 31.6346 36.1128 32.1635C36.0113 32.4009 35.9363 32.7801 35.8878 33.3011C35.7971 34.2777 35.7021 35.2543 35.6028 36.2309C35.5352 36.8923 35.1588 37.4987 34.6911 38.073C34.1255 38.7677 33.556 39.4598 32.9826 40.1494C32.13 41.1736 32.0632 42.2368 32.958 43.3169C33.4875 43.9568 34.0161 44.5977 34.5439 45.2393C35.1089 45.9261 35.5267 46.519 35.607 47.309C35.6826 48.0505 35.7556 48.7919 35.8261 49.5334C35.9129 50.448 35.991 51.0048 36.0604 51.2038C36.2735 51.8134 36.6956 52.2439 37.3265 52.4953C37.5577 52.5872 37.8943 52.6512 38.3364 52.6873C39.7584 52.8018 40.8033 52.9086 41.4709 53.0079ZM46.8594 57.5354C45.7835 57.5582 45.1179 57.1497 44.2273 56.4232C43.7508 56.0341 43.2755 55.6436 42.8013 55.2518C42.1247 54.6927 41.8143 54.3916 41.1123 54.2368C41.0846 54.2306 41.0655 54.2405 41.0548 54.2664L36.6744 64.7339C36.6718 64.7401 36.671 64.747 36.6721 64.7538C36.6732 64.7605 36.6762 64.7667 36.6807 64.7718C36.6852 64.777 36.691 64.7807 36.6975 64.7827C36.7041 64.7846 36.711 64.7847 36.7176 64.7829C37.6124 64.532 38.5092 64.2785 39.408 64.0226C40.0034 63.8526 40.4416 63.7671 40.9169 64.1266C41.0765 64.2473 41.2611 64.4996 41.4709 64.8836C41.9208 65.7068 42.3759 66.5312 42.836 67.3566C42.8518 67.3854 42.8661 67.3846 42.8791 67.3541L46.9389 57.6521C46.9722 57.5726 46.9457 57.5337 46.8594 57.5354Z" fill="#FFFCF9"/>
<path id="Vector_2" d="M43.7697 49.9334C47.8092 51.4313 52.2707 49.826 54.4249 46.0825C56.4641 42.5412 55.7351 38.0332 52.7367 35.2996C50.8794 33.6072 48.4994 32.8214 45.9755 33.0439C45.7195 33.0664 45.543 33.0645 45.4461 33.0379C44.7897 32.8586 44.8709 31.8936 45.5509 31.8023C51.0206 31.0656 56.0759 35.0196 56.7754 40.4623C57.6567 47.3131 51.4791 53.0112 44.7052 51.5505C38.1994 50.1465 34.7985 42.7696 38.0421 36.9294C39.0395 35.1341 40.459 33.756 42.3006 32.7952C42.5763 32.6514 42.8799 32.4823 43.1802 32.5643C43.5794 32.6743 43.7596 33.2232 43.5143 33.5454C43.4466 33.6339 43.298 33.7349 43.0686 33.8482C39.2921 35.7132 37.2792 39.8863 38.3736 43.9875C39.1018 46.7202 41.1165 48.9506 43.7697 49.9334Z" fill="#FFFCF9"/>
<path id="Vector_3" d="M44.6756 42.3907C46.132 40.9433 47.5845 39.4919 49.0331 38.0366C49.4148 37.6532 49.7066 37.411 49.9085 37.3101C51.5535 36.4854 53.3398 38.2641 52.5346 39.9143C52.4258 40.137 52.1941 40.426 51.8394 40.7812C49.9274 42.6938 48.0195 44.6106 46.116 46.5317C45.6654 46.9867 45.1354 47.1965 44.5259 47.161C43.7833 47.1187 43.4137 46.7347 42.8259 46.1469C42.0878 45.4105 41.3511 44.6729 40.6158 43.9343C40.3581 43.6755 40.18 43.4449 40.0813 43.2424C39.4892 42.033 40.2682 40.618 41.6291 40.442C42.4156 40.3414 42.9113 40.6958 43.4983 41.2726C43.8732 41.6414 44.2442 42.0138 44.6113 42.3899C44.6327 42.4119 44.6542 42.4121 44.6756 42.3907ZM51.2084 38.5551C50.9665 38.3504 50.5521 38.3318 50.3237 38.5602C48.6068 40.276 46.8915 41.9929 45.178 43.711C44.8335 44.0566 44.4887 44.0586 44.1436 43.7169C43.5459 43.1237 42.9485 42.5297 42.3514 41.9348C41.6857 41.2717 40.6784 42.1987 41.4489 42.9667C42.3381 43.8531 43.2282 44.7386 44.1191 45.6233C44.476 45.978 44.8213 45.9887 45.1552 45.6555C47.1777 43.6323 49.1994 41.6084 51.2203 39.5836C51.5197 39.2833 51.5298 38.8274 51.2084 38.5551Z" fill="#FFFCF9"/>
</g>
</g>
</svg>
