<svg width="96" height="96" viewBox="0 0 96 96" fill="none" xmlns="http://www.w3.org/2000/svg">
<g id="Group 69571">
<circle id="Ellipse 8" cx="47.8559" cy="48.1185" r="46.6761" fill="#F7FDFF" stroke="#2EB3D0"/>
<circle id="Ellipse 9" cx="47.856" cy="48.1185" r="34.7763" fill="#2EB3D0"/>
<g id="Group 69588">
<path id="Vector" d="M37.8132 43.296C37.827 43.2226 37.8298 43.1398 37.8218 43.0474C37.5568 39.9391 37.2976 36.8293 37.0441 33.718C37.0436 33.7108 37.0414 33.7037 37.0379 33.6973C37.0344 33.6909 37.0295 33.6854 37.0236 33.681C37.0177 33.6767 37.011 33.6737 37.0038 33.6722C36.9967 33.6707 36.9893 33.6708 36.9822 33.6724L27.6038 35.7844C27.5978 35.7858 27.5924 35.7889 27.5882 35.7933C27.584 35.7977 27.5811 35.8032 27.5799 35.8092C27.5788 35.8151 27.5793 35.8213 27.5816 35.827C27.5838 35.8327 27.5876 35.8376 27.5926 35.8411C28.3404 36.3842 29.0906 36.9351 29.843 37.4937C30.089 37.6769 30.0125 37.9264 29.8808 38.1758C28.3559 41.0663 27.543 44.1752 27.442 47.5027C27.4417 47.5103 27.4429 47.5179 27.4457 47.525C27.4484 47.5322 27.4526 47.5387 27.458 47.5442C27.4634 47.5497 27.4699 47.554 27.4771 47.5569C27.4842 47.5598 27.4919 47.5613 27.4997 47.5612C28.1689 47.552 28.8448 47.5508 29.5273 47.5577C29.8069 47.5603 30.0744 47.6489 30.0916 47.9517C30.1088 48.2608 29.9494 48.418 29.6133 48.4231C28.8993 48.4346 28.1876 48.4383 27.4782 48.4343C27.4735 48.4342 27.4689 48.435 27.4645 48.4368C27.4602 48.4386 27.4563 48.4412 27.453 48.4446C27.4497 48.448 27.4471 48.452 27.4453 48.4565C27.4436 48.4609 27.4428 48.4657 27.4429 48.4704C27.5301 51.857 28.3797 55.0336 29.9918 58.0003C30.0142 58.0416 30.0454 58.0505 30.0856 58.0269C30.6321 57.7069 31.1876 57.3852 31.7519 57.0617C31.9383 56.9545 32.0799 56.8983 32.1768 56.8931C32.4753 56.8759 32.7145 57.2906 32.5407 57.5572C32.5017 57.618 32.4229 57.6831 32.3042 57.7525C31.7043 58.1041 31.107 58.4487 30.5123 58.7865C30.5057 58.7904 30.4999 58.7954 30.4953 58.8015C30.4908 58.8076 30.4874 58.8145 30.4856 58.8219C30.4838 58.8293 30.4834 58.837 30.4846 58.8445C30.4858 58.852 30.4885 58.8592 30.4925 58.8657C32.2697 61.7424 34.5976 64.0679 37.476 65.8423C37.4803 65.845 37.4851 65.8468 37.4901 65.8476C37.4952 65.8484 37.5003 65.8481 37.5053 65.8468C37.5103 65.8455 37.515 65.8432 37.5191 65.8401C37.5232 65.837 37.5267 65.833 37.5293 65.8285C37.8459 65.2814 38.165 64.7283 38.4868 64.1691C38.6046 63.9635 38.7121 63.7321 38.9676 63.7235C39.2214 63.7149 39.4554 63.9394 39.4296 64.1863C39.421 64.2678 39.3679 64.3934 39.2704 64.5631C38.943 65.132 38.6192 65.6923 38.2992 66.244C38.2951 66.2513 38.2925 66.2592 38.2915 66.2675C38.2904 66.2757 38.2911 66.2841 38.2933 66.2921C38.2955 66.3001 38.2994 66.3076 38.3045 66.3141C38.3097 66.3206 38.3161 66.326 38.3233 66.3301C41.286 67.9427 44.4592 68.7932 47.8428 68.8816C47.8503 68.8818 47.8577 68.8805 47.8646 68.8778C47.8716 68.8751 47.8779 68.871 47.8832 68.8658C47.8885 68.8605 47.8927 68.8543 47.8955 68.8474C47.8983 68.8405 47.8997 68.8331 47.8996 68.8256C47.895 68.1191 47.8927 67.4054 47.8927 66.6845C47.8936 66.0969 48.7771 66.0341 48.7676 66.7817C48.7596 67.4665 48.7621 68.1512 48.7753 68.836C48.7759 68.8681 48.7923 68.8836 48.8244 68.8824C52.2063 68.7924 55.3792 67.9422 58.343 66.3318C58.3815 66.3111 58.3895 66.2822 58.3671 66.2449C58.0253 65.6634 57.6826 65.0709 57.3391 64.4676C57.2109 64.2414 57.1653 64.0074 57.377 63.8353C57.6953 63.5755 57.943 63.7708 58.1185 64.0745C58.4557 64.6589 58.7941 65.2421 59.1336 65.8242C59.1485 65.8506 59.1689 65.8558 59.1947 65.8397C62.0656 64.0676 64.3886 61.7464 66.1636 58.876C66.1687 58.8678 66.1722 58.8586 66.1737 58.849C66.1752 58.8393 66.1747 58.8295 66.1723 58.82C66.1699 58.8105 66.1656 58.8016 66.1597 58.7938C66.1537 58.786 66.1463 58.7794 66.1377 58.7745C65.5247 58.427 64.9102 58.0731 64.2942 57.713C64.0086 57.5469 63.9888 57.1934 64.228 56.9869C64.4224 56.82 64.6246 56.8966 64.8396 57.0196C65.4309 57.358 66.0121 57.6946 66.5834 58.0295C66.6189 58.0502 66.6467 58.0424 66.6668 58.0063C68.2789 55.0436 69.1291 51.8701 69.2174 48.4859C69.2177 48.479 69.2165 48.4721 69.214 48.4656C69.2115 48.4592 69.2078 48.4533 69.2029 48.4483C69.1981 48.4433 69.1924 48.4394 69.186 48.4367C69.1796 48.434 69.1727 48.4326 69.1658 48.4326C68.4489 48.4377 67.7381 48.4386 67.0333 48.4352C66.4096 48.4326 66.3881 47.5156 67.152 47.5543C67.4668 47.5698 68.1415 47.5672 69.1761 47.5465C69.206 47.546 69.2203 47.5308 69.2192 47.5009C69.1291 44.1087 68.2743 40.9281 66.6548 37.9591C66.6526 37.9549 66.6495 37.9513 66.6458 37.9484C66.6421 37.9454 66.6379 37.9433 66.6333 37.9421C66.6287 37.9409 66.6239 37.9406 66.6191 37.9413C66.6144 37.942 66.6098 37.9437 66.6057 37.9462C66.011 38.2977 65.4097 38.645 64.8018 38.9879C64.6727 39.0608 64.5686 39.098 64.4895 39.0997C64.1729 39.1075 63.9527 38.6834 64.1222 38.4374C64.1721 38.3657 64.2882 38.2768 64.4706 38.1707C65.0274 37.8467 65.5835 37.5272 66.1386 37.2124C66.1469 37.2077 66.1542 37.2014 66.1601 37.1938C66.1659 37.1862 66.1701 37.1775 66.1725 37.1682C66.1749 37.1589 66.1755 37.1492 66.1741 37.1396C66.1727 37.1301 66.1694 37.1209 66.1644 37.1126C64.39 34.2416 62.0668 31.9204 59.1947 30.1489C59.1677 30.1328 59.1465 30.1383 59.131 30.1652C58.7582 30.807 58.3909 31.4424 58.029 32.0715C57.7778 32.5077 56.9967 32.1455 57.3176 31.57C57.6611 30.9523 58.0107 30.3441 58.3663 29.7454C58.3886 29.7081 58.3809 29.6792 58.343 29.6585C55.3815 28.0447 52.2095 27.1939 48.827 27.1062C48.796 27.1056 48.7802 27.1208 48.7796 27.1518C48.7533 28.1881 48.7498 28.8556 48.7693 29.1544C48.7925 29.514 48.5947 29.8512 48.1973 29.7308C47.9263 29.6491 47.891 29.4176 47.8919 29.1475C47.8942 28.5075 47.8962 27.8474 47.8979 27.1672C47.898 27.1594 47.8965 27.1517 47.8936 27.1445C47.8906 27.1373 47.8863 27.1308 47.8807 27.1253C47.8752 27.1198 47.8686 27.1155 47.8613 27.1127C47.8541 27.1099 47.8463 27.1085 47.8385 27.1087C46.1587 27.1449 44.5085 27.3809 42.8878 27.8167C42.8276 27.8328 42.8075 27.8701 42.8276 27.9286L44.8294 33.7576C44.8324 33.7663 44.8385 33.7736 44.8464 33.7781C44.8544 33.7825 44.8636 33.7838 44.8724 33.7817C45.985 33.5053 47.1174 33.3676 48.2695 33.3688C48.9414 33.3688 48.9508 34.235 48.2248 34.2419C47.0812 34.2528 45.9563 34.4011 44.85 34.6867C44.4345 34.7942 44.2461 34.7529 44.1033 34.3391C43.3383 32.118 42.575 29.8959 41.8133 27.6731C41.6981 27.335 41.9742 27.1647 42.271 27.0804C51.8163 24.3697 61.87 28.301 66.9963 36.8158C70.1775 42.1003 70.9483 48.5272 69.1452 54.3941C67.3128 60.3556 62.775 65.5171 56.9632 67.9792C51.6795 70.2167 45.7301 70.4076 40.344 68.2527C28.353 63.4551 23.0935 49.4933 28.9802 38.0098C28.9939 37.9823 28.9885 37.9593 28.9638 37.941C28.0697 37.274 27.1742 36.6165 26.2773 35.9684C25.8919 35.6897 26.0587 35.2372 26.4923 35.1392C30.0417 34.3386 33.5908 33.5388 37.1396 32.7399C37.4897 32.6608 37.8381 32.6711 37.8734 33.1021C38.1791 36.8207 38.4833 40.5395 38.7861 44.2587C38.7901 44.3028 38.7861 44.3412 38.7741 44.3739C38.6433 44.7438 38.3706 44.8333 38.048 44.6002C37.2383 44.0135 36.4374 43.4305 35.6454 42.8513C35.6377 42.8457 35.6289 42.842 35.6196 42.8404C35.6103 42.8388 35.6007 42.8393 35.5917 42.842C35.5827 42.8447 35.5745 42.8494 35.5677 42.8558C35.5608 42.8622 35.5556 42.8701 35.5525 42.8788C34.2638 46.286 34.2503 49.6473 35.512 52.9627C37.4416 58.0321 42.3854 61.5282 47.7319 61.7329C50.1486 61.8252 52.428 61.3234 54.57 60.2275C54.7739 60.1234 55.2315 59.8429 55.4448 59.8558C55.7468 59.873 55.9335 60.2791 55.7778 60.5139C55.7279 60.5896 55.6152 60.6759 55.4397 60.7729C51.2167 63.117 46.0311 63.2357 41.7781 61.0671C34.8462 57.5332 31.7906 49.3014 34.9357 42.1209C35.1025 41.739 35.334 41.53 35.7305 41.8207C36.4015 42.3099 37.0785 42.8086 37.7616 43.3167C37.7897 43.3379 37.8069 43.331 37.8132 43.296Z" fill="white"/>
<path id="Vector_2" d="M47.6372 44.6768C47.6573 41.6074 47.6596 39.6311 47.6441 38.7479C47.6303 37.9737 48.5267 37.947 48.525 38.7479C48.5193 40.7208 48.5198 42.6939 48.5267 44.6673C48.5267 44.6971 48.5413 44.7152 48.5706 44.7215C50.1081 45.0444 51.0378 45.9752 51.3595 47.5139C51.3653 47.542 51.3827 47.556 51.412 47.556C54.6609 47.5641 57.9069 47.5638 61.15 47.5552C61.4451 47.5543 61.7462 47.6455 61.7487 47.9741C61.7516 48.2861 61.5813 48.4418 61.2378 48.4412C57.9619 48.4372 54.6861 48.4355 51.4103 48.4361C51.3827 48.4361 51.3658 48.4498 51.3595 48.4774C51.0797 49.7935 50.3699 50.6609 49.2304 51.0796C46.7297 51.9983 44.2298 49.7565 44.8973 47.1724C45.2397 45.8484 46.2204 45.0209 47.5908 44.7335C47.6212 44.7272 47.6366 44.7083 47.6372 44.6768ZM50.5079 47.9948C50.5079 47.3523 50.2527 46.7361 49.7984 46.2818C49.3441 45.8275 48.7279 45.5723 48.0854 45.5723C47.4429 45.5723 46.8268 45.8275 46.3725 46.2818C45.9182 46.7361 45.663 47.3523 45.663 47.9948C45.663 48.6372 45.9182 49.2534 46.3725 49.7077C46.8268 50.162 47.4429 50.4172 48.0854 50.4172C48.7279 50.4172 49.3441 50.162 49.7984 49.7077C50.2527 49.2534 50.5079 48.6372 50.5079 47.9948Z" fill="white"/>
</g>
</g>
</svg>
