<svg width="96" height="95" viewBox="0 0 96 95" fill="none" xmlns="http://www.w3.org/2000/svg">
<g id="Group 69571">
<circle id="Ellipse 8" cx="47.8559" cy="47.7649" r="46.6761" fill="#F7FDFF" stroke="#2EB3D0"/>
<circle id="Ellipse 9" cx="47.856" cy="47.765" r="34.7763" fill="#2EB3D0"/>
<g id="Group 69589">
<path id="Vector" d="M30.6938 62.367C30.1277 61.9417 29.9917 61.3953 29.9917 60.6637C29.9903 51.4109 29.9901 42.1581 29.991 32.9053C29.991 32.2594 30.0258 31.831 30.0953 31.6202C30.391 30.7252 31.3839 30.2224 32.3106 30.5111C35.5371 31.5148 38.7612 32.5262 41.983 33.5454C42.005 33.5523 42.0284 33.5523 42.0499 33.5454C45.9243 32.3859 49.7972 31.224 53.6687 30.0598C53.9279 29.9816 54.0602 29.9598 54.3328 30.0457C57.7541 31.1254 61.1752 32.2063 64.596 33.2884C65.591 33.6032 66.0382 34.1883 66.0382 35.2432C66.0391 44.68 66.0389 54.1168 66.0374 63.5536C66.0374 63.9155 66.0053 64.1904 65.941 64.3782C65.6931 65.1063 64.9565 65.6295 64.1742 65.5928C64.0127 65.5853 63.7494 65.5238 63.3841 65.4083C60.2773 64.4258 57.1797 63.4468 54.0912 62.4713C54.049 62.4581 54.0067 62.4579 53.9645 62.4706C50.0817 63.6348 46.2071 64.7981 42.3408 65.9604C42.0957 66.0344 41.9021 66.0224 41.6415 65.9407C38.2765 64.8859 34.9144 63.8221 31.555 62.7494C31.1471 62.6189 30.86 62.4914 30.6938 62.367ZM51.4302 38.7077C51.0048 38.6042 50.8281 38.0084 51.1527 37.7085C51.2386 37.6291 51.3889 37.5601 51.6034 37.5014C52.1832 37.3437 52.7772 37.2463 53.3856 37.2092C53.4152 37.2073 53.43 37.1916 53.43 37.162V31.4209C53.4301 31.4167 53.4291 31.4126 53.4273 31.4088C53.4255 31.405 53.4227 31.4017 53.4194 31.3991C53.416 31.3966 53.4121 31.3949 53.4079 31.3941C53.4038 31.3934 53.3995 31.3937 53.3955 31.3949L42.6372 34.6214C42.6166 34.6275 42.6062 34.6413 42.6062 34.6629V58.1441C42.6062 58.1501 42.6074 58.156 42.6098 58.1614C42.6122 58.1669 42.6158 58.1718 42.6202 58.1758C42.6246 58.1799 42.6299 58.183 42.6356 58.1849C42.6413 58.1868 42.6474 58.1876 42.6534 58.1871C42.8879 58.1632 43.166 58.0878 43.3653 58.1392C43.8751 58.2716 43.9646 58.9666 43.5153 59.2257C43.2998 59.3497 42.9217 59.3631 42.6443 59.387C42.6339 59.3879 42.6242 59.3927 42.6171 59.4003C42.6101 59.408 42.6062 59.4181 42.6062 59.4285V64.5894C42.6063 64.5936 42.6073 64.5978 42.6092 64.6016C42.6112 64.6054 42.6139 64.6087 42.6174 64.6112C42.6208 64.6137 42.6247 64.6154 42.6289 64.6161C42.6331 64.6169 42.6374 64.6167 42.6414 64.6155L53.392 61.3918C53.4034 61.3883 53.4133 61.3812 53.4204 61.3716C53.4275 61.362 53.4314 61.3503 53.4314 61.3383V38.4288C53.4314 38.4091 53.4216 38.4 53.4018 38.4014C52.8695 38.4413 52.3475 38.5328 51.8358 38.676C51.6691 38.7225 51.5339 38.733 51.4302 38.7077ZM54.6926 38.4204C54.6494 38.4143 54.6278 38.433 54.6278 38.4767V61.3488C54.6278 61.3723 54.6391 61.3875 54.6616 61.3946C57.7482 62.3724 60.8355 63.3475 63.9235 64.3197C64.5122 64.5049 64.8439 64.231 64.8439 63.6627C64.8439 54.1424 64.8441 44.6218 64.8446 35.1009C64.8446 34.5974 64.5094 34.5186 64.1115 34.3925C60.9616 33.3935 57.809 32.3974 54.6539 31.404C54.6508 31.4032 54.6476 31.403 54.6444 31.4035C54.6413 31.4041 54.6383 31.4053 54.6358 31.4071C54.6333 31.409 54.6312 31.4114 54.6298 31.4142C54.6284 31.4169 54.6277 31.42 54.6278 31.423V37.1951C54.6278 37.2172 54.6388 37.2289 54.6609 37.2303C55.4543 37.2834 56.1418 37.458 56.7234 37.7542C57.267 38.031 57.0276 38.914 56.3988 38.8696C56.3317 38.8645 56.1756 38.8156 55.9305 38.7232C55.5709 38.5875 55.1583 38.4866 54.6926 38.4204ZM31.205 32.3744C31.1872 41.8858 31.183 51.3973 31.1924 60.9087C31.1928 61.2265 31.329 61.4284 31.6008 61.5143C34.8597 62.5424 38.1207 63.5719 41.3838 64.6028C41.3865 64.6037 41.3893 64.6039 41.3921 64.6035C41.3949 64.6031 41.3975 64.602 41.3998 64.6003C41.4021 64.5987 41.4039 64.5965 41.4052 64.594C41.4064 64.5915 41.4071 64.5887 41.407 64.5859V59.4462C41.407 59.4213 41.3946 59.407 41.3697 59.4032C40.6106 59.2905 40.6155 58.323 41.3718 58.2047C41.3953 58.2009 41.407 58.1869 41.407 58.1625V34.6615C41.407 34.6498 41.4033 34.6385 41.3965 34.6291C41.3896 34.6198 41.38 34.6129 41.369 34.6094C38.3063 33.6405 35.2418 32.6722 32.1754 31.7047C31.8317 31.597 31.5043 31.5575 31.3029 31.8801C31.2381 31.9843 31.2055 32.149 31.205 32.3744Z" fill="white"/>
<path id="Vector_2" d="M38.127 36.6847C38.8143 37.1738 39.2678 37.8371 39.4875 38.6746C39.879 40.1696 39.2467 41.9518 38.3953 43.2144C37.84 44.0373 37.2039 44.7579 36.487 45.3762C35.9307 45.8557 35.616 45.4755 35.1625 45.0474C33.6978 43.6651 32.2965 41.561 32.4028 39.4394C32.5479 36.553 35.7716 35.0073 38.127 36.6847ZM33.8147 38.5965C33.364 39.5844 33.6851 40.8442 34.1555 41.7533C34.6283 42.6659 35.2383 43.4731 35.9857 44.1749C35.996 44.1843 36.0061 44.1843 36.0159 44.1749C37.1623 43.0905 38.1834 41.6209 38.3784 40.0309C38.5291 38.8063 37.9292 37.7219 36.7793 37.3121C35.6068 36.8945 34.314 37.5022 33.8147 38.5965Z" fill="white"/>
<path id="Vector_3" d="M50.2521 38.7569C50.5478 39.0386 50.4316 39.3921 50.1732 39.6639C49.9953 39.8512 49.8359 40.0523 49.6951 40.2674C49.5472 40.4932 49.4352 40.6333 49.3592 40.6877C49.0191 40.9321 48.5515 40.7215 48.4571 40.3314C48.3473 39.8786 49.0064 39.159 49.3486 38.8006C49.6197 38.5154 49.9627 38.4809 50.2521 38.7569Z" fill="white"/>
<path id="Vector_4" d="M36.0004 40.1885C36.3302 40.1885 36.5975 39.9212 36.5975 39.5914C36.5975 39.2616 36.3302 38.9943 36.0004 38.9943C35.6706 38.9943 35.4033 39.2616 35.4033 39.5914C35.4033 39.9212 35.6706 40.1885 36.0004 40.1885Z" fill="white"/>
<path id="Vector_5" d="M58.3965 39.0449C58.4205 39.0534 58.4463 39.0621 58.474 39.071C58.5007 39.0799 58.5233 39.0942 58.5416 39.1139C58.8634 39.4548 59.6401 40.3941 59.5978 40.8737C59.5633 41.2701 59.0521 41.5236 58.719 41.3243C58.6289 41.2703 58.5228 41.1429 58.4007 40.942C58.2271 40.6565 57.9991 40.3319 57.717 39.9681C57.3417 39.485 57.8085 38.833 58.3965 39.0449Z" fill="white"/>
<path id="Vector_6" d="M48.335 42.0146L48.2763 42.0073C47.9649 41.9685 47.681 42.1895 47.6422 42.5009L47.4871 43.7461C47.4483 44.0576 47.6693 44.3415 47.9807 44.3803L48.0394 44.3876C48.3509 44.4264 48.6348 44.2054 48.6736 43.8939L48.8287 42.6487C48.8675 42.3373 48.6464 42.0534 48.335 42.0146Z" fill="white"/>
<path id="Vector_7" d="M59.9469 43.2031L59.8851 43.2074C59.572 43.2293 59.3359 43.5009 59.3578 43.814L59.445 45.0601C59.4668 45.3732 59.7384 45.6092 60.0515 45.5873L60.1133 45.583C60.4264 45.5611 60.6624 45.2896 60.6405 44.9765L60.5534 43.7303C60.5315 43.4173 60.26 43.1812 59.9469 43.2031Z" fill="white"/>
<path id="Vector_8" d="M48.0454 45.6133L47.9848 45.6137C47.6718 45.6159 47.4197 45.8715 47.4219 46.1845L47.4306 47.4295C47.4328 47.7425 47.6884 47.9945 48.0014 47.9923L48.062 47.9919C48.375 47.9897 48.627 47.7342 48.6249 47.4211L48.6162 46.1762C48.614 45.8631 48.3584 45.6111 48.0454 45.6133Z" fill="white"/>
<path id="Vector_9" d="M36.032 46.8142L35.9729 46.814C35.6606 46.8129 35.4065 47.0652 35.4054 47.3775L35.4011 48.6266C35.4 48.9389 35.6523 49.193 35.9645 49.1941L36.0237 49.1943C36.336 49.1954 36.59 48.9431 36.5911 48.6308L36.5955 47.3816C36.5966 47.0693 36.3443 46.8153 36.032 46.8142Z" fill="white"/>
<path id="Vector_10" d="M60.0612 46.8132L60.002 46.8133C59.6897 46.8139 59.437 47.0675 59.4376 47.3798L59.4398 48.6304C59.4403 48.9427 59.6939 49.1954 60.0062 49.1948L60.0653 49.1947C60.3776 49.1942 60.6303 48.9406 60.6298 48.6283L60.6276 47.3777C60.6271 47.0654 60.3735 46.8127 60.0612 46.8132Z" fill="white"/>
<path id="Vector_11" d="M48.0646 49.2192L48.0041 49.216C47.6907 49.1996 47.4233 49.4404 47.4069 49.7538L47.3416 50.9998C47.3252 51.3133 47.5659 51.5806 47.8793 51.5971L47.9398 51.6002C48.2532 51.6167 48.5206 51.3759 48.537 51.0625L48.6024 49.8164C48.6188 49.503 48.378 49.2356 48.0646 49.2192Z" fill="white"/>
<path id="Vector_12" d="M36.0068 50.4206L35.9476 50.4226C35.6352 50.4335 35.3907 50.6957 35.4016 51.0082L35.4452 52.2566C35.4561 52.5691 35.7183 52.8136 36.0308 52.8027L36.0899 52.8006C36.4024 52.7897 36.6468 52.5275 36.6359 52.215L36.5923 50.9666C36.5814 50.6541 36.3192 50.4096 36.0068 50.4206Z" fill="white"/>
<path id="Vector_13" d="M60.0755 50.4209L59.9995 50.4206C59.6934 50.4196 59.4444 50.6668 59.4434 50.9729L59.441 51.6432C59.44 51.9493 59.6872 52.1983 59.9933 52.1994L60.0693 52.1996C60.3754 52.2007 60.6244 51.9534 60.6254 51.6474L60.6278 50.977C60.6289 50.6709 60.3816 50.422 60.0755 50.4209Z" fill="white"/>
<path id="Vector_14" d="M59.1521 54.5818C58.5672 53.9889 57.9782 53.399 57.3853 52.8122C57.0973 52.527 56.8776 52.2073 57.1706 51.8531C57.4353 51.5348 57.8149 51.5489 58.1036 51.8348C58.743 52.47 59.3779 53.1051 60.0084 53.7403C60.0118 53.7437 60.0158 53.7465 60.0203 53.7483C60.0248 53.7502 60.0296 53.7512 60.0344 53.7512C60.0393 53.7512 60.0441 53.7502 60.0485 53.7483C60.053 53.7465 60.0571 53.7437 60.0605 53.7403C60.6318 53.1741 61.2024 52.6033 61.7723 52.0277C61.9629 51.8357 62.1066 51.716 62.2033 51.6686C62.7898 51.3841 63.3264 52.1679 62.8546 52.6404C62.2058 53.2906 61.566 53.9302 60.9351 54.5592C60.8989 54.5949 60.8989 54.6308 60.9351 54.667C61.5547 55.2824 62.1547 55.8821 62.7349 56.4661C63.0088 56.7422 63.1715 57.0731 62.8884 57.3914C62.6053 57.7097 62.2392 57.6611 61.9491 57.3724C61.3167 56.7438 60.6867 56.114 60.0591 55.4831C60.0563 55.4802 60.0531 55.4779 60.0494 55.4764C60.0458 55.4748 60.0418 55.474 60.0378 55.474C60.0338 55.474 60.0298 55.4748 60.0261 55.4764C60.0224 55.4779 60.019 55.4802 60.0161 55.4831C59.3791 56.1164 58.7395 56.7515 58.0973 57.3886C57.847 57.6369 57.5978 57.6907 57.3494 57.5498C56.8621 57.2731 56.9882 56.8041 57.3241 56.476C57.9423 55.8727 58.5519 55.2613 59.1528 54.6416C59.172 54.6214 59.1718 54.6015 59.1521 54.5818Z" fill="white"/>
<path id="Vector_15" d="M47.8028 52.8481L47.7496 52.8347C47.4438 52.7573 47.1332 52.9424 47.0558 53.2482L46.7432 54.4838C46.6658 54.7896 46.851 55.1002 47.1567 55.1775L47.21 55.191C47.5157 55.2684 47.8263 55.0832 47.9037 54.7775L48.2163 53.5419C48.2937 53.2361 48.1086 52.9255 47.8028 52.8481Z" fill="white"/>
<path id="Vector_16" d="M36.2015 54.0284L36.1506 54.0452C35.8501 54.1446 35.687 54.4689 35.7864 54.7694L36.2061 56.0383C36.3055 56.3389 36.6297 56.502 36.9303 56.4026L36.9811 56.3858C37.2816 56.2864 37.4447 55.9621 37.3453 55.6616L36.9256 54.3927C36.8262 54.0921 36.502 53.929 36.2015 54.0284Z" fill="white"/>
<path id="Vector_17" d="M46.6339 56.4918L46.5959 56.4561C46.3646 56.2388 46.001 56.2503 45.7837 56.4816L45.0722 57.2393C44.855 57.4706 44.8664 57.8342 45.0978 58.0515L45.1357 58.0871C45.3671 58.3044 45.7307 58.293 45.948 58.0616L46.6594 57.304C46.8767 57.0726 46.8652 56.709 46.6339 56.4918Z" fill="white"/>
<path id="Vector_18" d="M39.3207 57.7426L38.3696 57.1178C38.1044 56.9436 37.7481 57.0174 37.5739 57.2826L37.5445 57.3274C37.3703 57.5926 37.444 57.9489 37.7093 58.1231L38.6604 58.7478C38.9256 58.9221 39.2819 58.8483 39.4561 58.583L39.4855 58.5383C39.6597 58.2731 39.5859 57.9168 39.3207 57.7426Z" fill="white"/>
</g>
</g>
</svg>
