<svg width="180" height="217" viewBox="0 0 180 217" fill="none" xmlns="http://www.w3.org/2000/svg">
<g id="Vector" style="mix-blend-mode:overlay">
<path d="M179.896 80.8244C174.125 46.6207 157.653 23.0139 130.164 10.1088C38.1497 -33.4327 -41.9037 80.7195 26.6085 153.219C36.1562 163.291 56.9302 184.065 89.0355 215.646C89.8748 216.38 90.6093 216.38 91.4486 215.646C110.964 196.236 130.374 176.825 149.784 157.311C163.318 143.566 171.817 132.025 176.643 114.923C177.063 113.349 176.643 111.671 175.489 110.517C158.807 93.5196 142.02 76.8374 125.233 60.3651C85.2584 21.2303 24.8249 64.9816 51.4744 112.72C54.9367 118.805 60.6024 125.1 66.5828 131.291L89.665 154.373C89.8748 154.583 90.3994 154.583 90.6093 154.373L122.505 122.897C123.344 122.058 123.344 120.799 122.505 119.959L109.495 106.949C108.76 106.215 107.396 106.215 106.662 106.949L92.0781 121.533C91.3437 122.267 90.6093 122.267 89.8748 121.638C80.3272 113.559 74.4517 107.789 72.1435 104.326C55.4613 79.0408 86.3076 53.6503 108.655 75.2637C119.672 85.8605 133.521 99.8148 150.203 117.231C151.043 118.071 151.148 119.015 150.623 120.064C139.397 142.412 109.914 166.543 91.7634 184.485C91.0289 185.219 90.1896 185.219 89.4552 184.485C75.2911 169.796 60.8122 155.317 46.1235 141.153C-13.8903 83.5523 56.6154 -9.19632 125.862 33.296C142.754 43.683 161.744 65.716 178.007 81.7687C178.741 82.608 180.105 81.8736 179.896 80.8244Z" fill="black"/>
</g>
</svg>
