<svg width="48" height="57" xmlns="http://www.w3.org/2000/svg" fill="none">

 <g>
  <title>Layer 1</title>
  <path transform="rotate(-180, 23.8364, 28.7309)" fill="#2EB3D0" d="m47.2914,21.5191c-1.5125,-8.9647 -5.8299,-15.15203 -13.0346,-18.53444c-24.1169,-11.41217 -45.0988,18.50694 -27.14177,37.50894c2.50243,2.6399 7.94727,8.0848 16.36207,16.362c0.22,0.1925 0.4124,0.1925 0.6324,0c5.1149,-5.0873 10.2022,-10.1747 15.2896,-15.2895c3.5474,-3.6024 5.7748,-6.6273 7.0398,-11.1097c0.11,-0.4125 0,-0.8525 -0.3025,-1.155c-4.3724,-4.4549 -8.7722,-8.8272 -13.1721,-13.1446c-10.4772,-10.25722 -26.31676,1.21 -19.332,13.7221c0.9075,1.595 2.3925,3.2449 3.9599,4.8674l6.0499,6.0498c0.055,0.055 0.1925,0.055 0.2474,0l8.3598,-8.2498c0.22,-0.22 0.22,-0.55 0,-0.77l-3.4099,-3.4099c-0.1925,-0.1925 -0.55,-0.1925 -0.7425,0l-3.8224,3.8224c-0.1925,0.1925 -0.385,0.1925 -0.5774,0.0275c-2.5025,-2.1174 -4.0424,-3.6299 -4.6474,-4.5373c-4.3724,-6.6274 3.7124,-13.2822 9.5697,-7.6173c2.8874,2.7774 6.5173,6.4348 10.8897,10.9997c0.22,0.22 0.2475,0.4675 0.11,0.7424c-2.9424,5.8574 -10.6697,12.1822 -15.4271,16.8846c-0.1925,0.1925 -0.4124,0.1925 -0.6049,0c-3.7124,-3.8499 -7.5073,-7.6448 -11.3572,-11.3572c-15.72957,-15.0971 2.7499,-39.40639 20.8994,-28.26921c4.4274,2.72241 9.4047,8.49721 13.6671,12.70461c0.1925,0.22 0.55,0.0275 0.495,-0.2475z" id="Vector"/>
 </g>
</svg>