<svg width="48" height="57" viewBox="0 0 48 57" fill="none" xmlns="http://www.w3.org/2000/svg">
<path id="Vector" d="M47.2914 21.5191C45.7789 12.5544 41.4615 6.36707 34.2568 2.98466C10.1399 -8.42751 -10.842 21.4916 7.11503 40.4936C9.61746 43.1335 15.0623 48.5784 23.4771 56.8556C23.6971 57.0481 23.8895 57.0481 24.1095 56.8556C29.2244 51.7683 34.3117 46.6809 39.3991 41.5661C42.9465 37.9637 45.1739 34.9388 46.4389 30.4564C46.5489 30.0439 46.4389 29.6039 46.1364 29.3014C41.764 24.8465 37.3642 20.4742 32.9643 16.1568C22.4871 5.89958 6.64754 17.3668 13.6323 29.8789C14.5398 31.4739 16.0248 33.1238 17.5922 34.7463L23.6421 40.7961C23.6971 40.8511 23.8346 40.8511 23.8895 40.7961L32.2493 32.5463C32.4693 32.3263 32.4693 31.9963 32.2493 31.7763L28.8394 28.3664C28.6469 28.1739 28.2894 28.1739 28.0969 28.3664L24.2745 32.1888C24.082 32.3813 23.8895 32.3813 23.6971 32.2163C21.1946 30.0989 19.6547 28.5864 19.0497 27.679C14.6773 21.0516 22.7621 14.3968 28.6194 20.0617C31.5068 22.8391 35.1367 26.4965 39.5091 31.0614C39.7291 31.2814 39.7566 31.5289 39.6191 31.8038C36.6767 37.6612 28.9494 43.986 24.192 48.6884C23.9995 48.8809 23.7796 48.8809 23.5871 48.6884C19.8747 44.8385 16.0798 41.0436 12.2299 37.3312C-3.49967 22.2341 14.9798 -2.07519 33.1293 9.06199C37.5567 11.7844 42.534 17.5592 46.7964 21.7666C46.9889 21.9866 47.3464 21.7941 47.2914 21.5191Z" fill="#2EB3D0"/>
</svg>
