<svg width="30" height="30" viewBox="0 0 30 30" fill="none" xmlns="http://www.w3.org/2000/svg">
<g id="modern-house 2" clip-path="url(#clip0_209_1280)">
<path id="Vector" d="M13.4604 0.941833H13.6281C18.2175 2.63728 22.8079 4.33706 27.3991 6.04119C27.6699 6.14125 27.8053 6.33421 27.8053 6.62006C27.8053 14.1721 27.8053 21.7242 27.8053 29.2763C27.8053 29.6335 27.6446 29.8554 27.3232 29.9418H2.02584C1.70035 29.8599 1.5376 29.6428 1.5376 29.2905C1.5376 24.1788 1.53816 19.067 1.5393 13.955C1.5393 13.6271 1.70129 13.4889 1.99979 13.3563C5.65311 11.7341 9.30435 10.1118 12.9535 8.4892C12.9599 8.48653 12.9653 8.48204 12.9691 8.4763C12.973 8.47055 12.975 8.46381 12.975 8.45691C12.975 6.17996 12.975 3.90149 12.975 1.62152C12.975 1.2526 13.1368 1.02604 13.4604 0.941833ZM12.979 14.9428C12.976 13.2142 12.9743 11.4838 12.9739 9.75172C12.9739 9.73019 12.9641 9.72377 12.9445 9.73246L2.69193 14.2858C2.6757 14.293 2.66758 14.3056 2.66758 14.3237V25.4434C2.66758 25.4627 2.67721 25.4723 2.69646 25.4723L4.5741 25.4718C4.59336 25.4718 4.60318 25.4621 4.60355 25.4429C4.60393 24.1904 4.60412 22.938 4.60412 21.6859C4.60355 21.3993 4.66529 21.1716 4.92527 21.0549C5.0125 21.016 5.17846 20.9966 5.42314 20.9966C7.06534 20.9973 8.70755 20.9975 10.3497 20.9971C10.8703 20.9966 11.0413 21.2237 11.0408 21.7442C11.04 22.9748 11.0404 24.2066 11.0419 25.4395C11.0423 25.4614 11.0532 25.4723 11.0747 25.4723H12.9439C12.9643 25.4723 12.9745 25.4619 12.9745 25.4412C12.9756 23.7223 12.9752 22.0035 12.9733 20.2846C12.9722 19.4967 14.1039 19.4894 14.1039 20.2563C14.1043 23.0978 14.106 25.9398 14.109 28.7824C14.109 28.8001 14.118 28.809 14.1362 28.809H15.3217C15.3402 28.809 15.3494 28.7998 15.3494 28.7813C15.349 27.7134 15.3494 26.6455 15.3505 25.5777C15.3505 25.4489 15.367 25.3494 15.3998 25.2792C15.5969 24.8561 16.2081 24.834 16.412 25.2571C16.4573 25.3511 16.4798 25.4999 16.4794 25.7034C16.4771 26.7275 16.4773 27.7519 16.48 28.7767C16.48 28.7983 16.4907 28.809 16.5122 28.809H17.7708C17.7897 28.809 17.7991 28.7998 17.7991 28.7813C17.7991 26.9102 17.7991 25.0392 17.7991 23.1682C17.7991 22.9601 17.8256 22.8079 17.8784 22.7117C17.9781 22.5289 18.1458 22.4377 18.3814 22.4381C19.6705 22.4388 20.9599 22.4388 22.2494 22.4381C22.7943 22.4381 22.9834 22.6335 22.9834 23.1942C22.9831 25.0558 22.9832 26.9178 22.984 28.7801C22.984 28.7994 22.9936 28.809 23.0129 28.809H24.2714C24.2907 28.809 24.3003 28.7992 24.3003 28.7796C24.3011 27.7087 24.3 26.6374 24.2969 25.5658C24.2947 24.9518 25.0701 24.698 25.3606 25.2469C25.409 25.3379 25.4331 25.4659 25.4331 25.6309C25.4324 26.6795 25.4328 27.7293 25.4343 28.7801C25.4343 28.7994 25.4439 28.809 25.4632 28.809H26.6419C26.6641 28.809 26.6753 28.7979 26.6753 28.7756V7.00861C26.6753 6.99049 26.6668 6.9784 26.6498 6.97236L14.1231 2.325C14.1212 2.32428 14.1191 2.32403 14.1171 2.32428C14.115 2.32452 14.113 2.32526 14.1113 2.32642C14.1096 2.32759 14.1082 2.32914 14.1072 2.33097C14.1062 2.33279 14.1056 2.33482 14.1056 2.33689C14.106 6.5974 14.1062 10.8572 14.1062 15.1161C14.1062 15.7012 13.3217 15.9131 13.0577 15.4033C13.0056 15.3021 12.9794 15.1486 12.979 14.9428ZM9.91191 22.1424C9.91191 22.1384 9.9103 22.1345 9.90743 22.1316C9.90457 22.1287 9.90068 22.1271 9.89662 22.1271H5.75166C5.7476 22.1271 5.74371 22.1287 5.74085 22.1316C5.73798 22.1345 5.73637 22.1384 5.73637 22.1424V25.4525C5.73637 25.4566 5.73798 25.4604 5.74085 25.4633C5.74371 25.4662 5.7476 25.4678 5.75166 25.4678H9.89662C9.90068 25.4678 9.90457 25.4662 9.90743 25.4633C9.9103 25.4604 9.91191 25.4566 9.91191 25.4525V22.1424ZM21.8512 23.5856C21.8512 23.5814 21.8495 23.5774 21.8465 23.5744C21.8436 23.5714 21.8395 23.5698 21.8353 23.5698H18.9444C18.9402 23.5698 18.9362 23.5714 18.9332 23.5744C18.9302 23.5774 18.9285 23.5814 18.9285 23.5856V28.7932C18.9285 28.7974 18.9302 28.8014 18.9332 28.8044C18.9362 28.8074 18.9402 28.809 18.9444 28.809H21.8353C21.8395 28.809 21.8436 28.8074 21.8465 28.8044C21.8495 28.8014 21.8512 28.7974 21.8512 28.7932V23.5856ZM12.9722 26.647C12.9722 26.6424 12.9704 26.6379 12.9671 26.6346C12.9638 26.6313 12.9593 26.6295 12.9546 26.6295H2.68457C2.67991 26.6295 2.67545 26.6313 2.67215 26.6346C2.66886 26.6379 2.66701 26.6424 2.66701 26.647V28.7915C2.66701 28.7961 2.66886 28.8006 2.67215 28.8039C2.67545 28.8072 2.67991 28.809 2.68457 28.809H12.9546C12.9593 28.809 12.9638 28.8072 12.9671 28.8039C12.9704 28.8006 12.9722 28.7961 12.9722 28.7915V26.647Z" fill="#C5A33F"/>
<path id="Vector_2" d="M16.7613 6.36632C17.4829 6.63083 18.2056 6.89365 18.9238 7.16665C19.4086 7.35017 19.5995 7.41417 19.5995 7.94773C19.5988 9.44228 19.5988 10.9367 19.5995 12.4308C19.5999 12.6842 19.5782 12.857 19.5344 12.9491C19.4035 13.2227 19.1566 13.2606 18.8536 13.2601C17.8793 13.2593 16.9053 13.2595 15.9315 13.2606C15.697 13.2606 15.5288 13.1679 15.4268 12.9825C15.3754 12.8896 15.3498 12.7497 15.3498 12.5628C15.3494 10.7462 15.349 8.92969 15.3486 7.11341C15.3486 6.8657 15.3652 6.69937 15.3985 6.61441C15.5406 6.24794 15.9989 6.27003 16.3721 6.28646C16.502 6.2925 16.6317 6.31912 16.7613 6.36632ZM18.4661 8.21394C18.4661 8.21023 18.465 8.20661 18.4629 8.20357C18.4607 8.20053 18.4577 8.19822 18.4542 8.19695L16.503 7.47591C16.5002 7.47491 16.4973 7.47458 16.4944 7.47496C16.4915 7.47533 16.4888 7.4764 16.4864 7.47807C16.484 7.47973 16.482 7.48195 16.4807 7.48454C16.4793 7.48712 16.4786 7.48999 16.4786 7.4929V12.1097C16.4786 12.1145 16.4805 12.1191 16.4839 12.1225C16.4873 12.1259 16.4919 12.1278 16.4967 12.1278H18.448C18.4528 12.1278 18.4574 12.1259 18.4608 12.1225C18.4642 12.1191 18.4661 12.1145 18.4661 12.1097V8.21394Z" fill="#C5A33F"/>
<path id="Vector_3" d="M21.9453 8.28866L25.064 9.443C25.1723 9.48304 25.2658 9.55533 25.3318 9.65011C25.3978 9.7449 25.4332 9.85764 25.4333 9.97315V12.6942C25.4333 12.8441 25.3737 12.9879 25.2677 13.0939C25.1617 13.1999 25.0179 13.2594 24.868 13.2594H21.7494C21.5994 13.2594 21.4557 13.1999 21.3496 13.0939C21.2436 12.9879 21.1841 12.8441 21.1841 12.6942V8.81882C21.1841 8.72771 21.2061 8.63795 21.2483 8.5572C21.2905 8.47644 21.3515 8.40707 21.4263 8.35501C21.5011 8.30294 21.5873 8.26972 21.6777 8.25816C21.7681 8.24661 21.8599 8.25707 21.9453 8.28866ZM22.3384 9.64011C22.3357 9.6391 22.3327 9.63878 22.3299 9.63915C22.327 9.63953 22.3242 9.64059 22.3218 9.64226C22.3194 9.64393 22.3175 9.64615 22.3161 9.64873C22.3148 9.65131 22.3141 9.65418 22.3141 9.6571V12.1096C22.3141 12.1144 22.316 12.1191 22.3194 12.1225C22.3228 12.1259 22.3274 12.1278 22.3322 12.1278H24.2823C24.2871 12.1278 24.2917 12.1259 24.2951 12.1225C24.2985 12.1191 24.3004 12.1144 24.3004 12.1096V10.3781C24.3004 10.3744 24.2993 10.3708 24.2972 10.3678C24.295 10.3647 24.292 10.3624 24.2886 10.3611L22.3384 9.64011Z" fill="#C5A33F"/>
<path id="Vector_4" d="M4.97583 15.1354C6.1432 14.646 7.30773 14.1521 8.47566 13.6639C8.55414 13.631 8.63832 13.6142 8.72318 13.6146C9.19443 13.6157 9.67833 13.6155 10.1749 13.614C10.4464 13.6133 10.628 13.6333 10.7198 13.6741C11.0211 13.8072 11.0426 14.0762 11.042 14.4002C11.0405 15.7796 11.0405 17.159 11.042 18.5384C11.0424 18.7917 11.0234 18.9622 10.9848 19.0498C10.8665 19.3206 10.6291 19.3767 10.3335 19.3767C8.69693 19.3767 7.06021 19.3768 5.42329 19.3772C5.17936 19.3772 5.0134 19.3572 4.92542 19.3172C4.66488 19.1994 4.60427 18.9722 4.60427 18.6845C4.60352 17.6789 4.60333 16.6736 4.6037 15.6684C4.6037 15.4173 4.72775 15.2396 4.97583 15.1354ZM8.65464 14.8154C7.68892 15.2226 6.72433 15.627 5.75804 16.0354C5.74369 16.0415 5.73652 16.0522 5.73652 16.0677V18.2172C5.73652 18.2357 5.74596 18.245 5.76484 18.245H9.88488C9.903 18.245 9.91206 18.2359 9.91206 18.2178V14.7769C9.91206 14.7587 9.903 14.7497 9.88488 14.7497C9.57486 14.744 9.26617 14.7442 8.9588 14.7502C8.85421 14.7521 8.75282 14.7738 8.65464 14.8154Z" fill="#C5A33F"/>
<path id="Vector_5" d="M19.5994 15.3121V20.0195C19.5994 20.1696 19.5397 20.3135 19.4336 20.4196C19.3275 20.5257 19.1836 20.5854 19.0335 20.5854H15.9154C15.7654 20.5854 15.6215 20.5257 15.5153 20.4196C15.4092 20.3135 15.3496 20.1696 15.3496 20.0195V15.3121C15.3496 15.162 15.4092 15.0181 15.5153 14.912C15.6215 14.8059 15.7654 14.7463 15.9154 14.7463H19.0335C19.1836 14.7463 19.3275 14.8059 19.4336 14.912C19.5397 15.0181 19.5994 15.162 19.5994 15.3121ZM18.4665 15.8938C18.4665 15.8889 18.4646 15.8841 18.4611 15.8806C18.4576 15.8771 18.4528 15.8751 18.4479 15.8751H16.4971C16.4922 15.8751 16.4874 15.8771 16.4839 15.8806C16.4804 15.8841 16.4785 15.8889 16.4785 15.8938V19.4373C16.4785 19.4422 16.4804 19.447 16.4839 19.4505C16.4874 19.454 16.4922 19.4559 16.4971 19.4559H18.4479C18.4528 19.4559 18.4576 19.454 18.4611 19.4505C18.4646 19.447 18.4665 19.4422 18.4665 19.4373V15.8938Z" fill="#C5A33F"/>
<path id="Vector_6" d="M21.1836 20.0195V15.3121C21.1836 15.162 21.2432 15.0181 21.3493 14.912C21.4554 14.8059 21.5994 14.7463 21.7494 14.7463H24.8675C25.0176 14.7463 25.1615 14.8059 25.2676 14.912C25.3737 15.0181 25.4333 15.162 25.4333 15.3121V20.0195C25.4333 20.1696 25.3737 20.3135 25.2676 20.4196C25.1615 20.5257 25.0176 20.5854 24.8675 20.5854H21.7494C21.5994 20.5854 21.4554 20.5257 21.3493 20.4196C21.2432 20.3135 21.1836 20.1696 21.1836 20.0195ZM24.3005 15.8927C24.3005 15.8882 24.2987 15.8839 24.2956 15.8807C24.2924 15.8775 24.288 15.8757 24.2835 15.8757H22.3306C22.3261 15.8757 22.3217 15.8775 22.3186 15.8807C22.3154 15.8839 22.3136 15.8882 22.3136 15.8927V19.4395C22.3136 19.444 22.3154 19.4483 22.3186 19.4515C22.3217 19.4547 22.3261 19.4565 22.3306 19.4565H24.2835C24.288 19.4565 24.2924 19.4547 24.2956 19.4515C24.2987 19.4483 24.3005 19.444 24.3005 19.4395V15.8927Z" fill="#C5A33F"/>
<path id="Vector_7" d="M13.5412 18.2608C13.8528 18.2608 14.1053 18.0083 14.1053 17.6967C14.1053 17.3851 13.8528 17.1326 13.5412 17.1326C13.2296 17.1326 12.9771 17.3851 12.9771 17.6967C12.9771 18.0083 13.2296 18.2608 13.5412 18.2608Z" fill="#C5A33F"/>
</g>
<defs>
<clipPath id="clip0_209_1280">
<rect width="29" height="29" fill="white" transform="translate(0.171387 0.941833)"/>
</clipPath>
</defs>
</svg>
