<svg width="30" height="30" viewBox="0 0 30 30" fill="none" xmlns="http://www.w3.org/2000/svg">
<g id="modern-house 2" clip-path="url(#clip0_209_1269)">
<path id="Vector" d="M14.0645 0.941833H14.2321C18.8215 2.63728 23.4119 4.33706 28.0031 6.04119C28.2739 6.14125 28.4093 6.33421 28.4093 6.62006C28.4093 14.1721 28.4093 21.7242 28.4093 29.2763C28.4093 29.6335 28.2486 29.8554 27.9272 29.9418H2.62984C2.30435 29.8599 2.1416 29.6428 2.1416 29.2905C2.1416 24.1788 2.14217 19.067 2.1433 13.955C2.1433 13.6271 2.30529 13.4889 2.60379 13.3563C6.25711 11.7341 9.90835 10.1118 13.5575 8.4892C13.5639 8.48653 13.5693 8.48204 13.5731 8.4763C13.577 8.47055 13.579 8.46381 13.579 8.45691C13.579 6.17996 13.579 3.90149 13.579 1.62152C13.579 1.2526 13.7408 1.02604 14.0645 0.941833ZM13.583 14.9428C13.58 13.2142 13.5783 11.4838 13.5779 9.75172C13.5779 9.73019 13.5681 9.72377 13.5485 9.73246L3.29594 14.2858C3.2797 14.293 3.27158 14.3056 3.27158 14.3237V25.4434C3.27158 25.4627 3.28121 25.4723 3.30047 25.4723L5.17811 25.4718C5.19736 25.4718 5.20718 25.4621 5.20756 25.4429C5.20794 24.1904 5.20812 22.938 5.20812 21.6859C5.20756 21.3993 5.2693 21.1716 5.52928 21.0549C5.6165 21.016 5.78246 20.9966 6.02715 20.9966C7.66935 20.9973 9.31155 20.9975 10.9537 20.9971C11.4743 20.9966 11.6453 21.2237 11.6448 21.7442C11.644 22.9748 11.6444 24.2066 11.6459 25.4395C11.6463 25.4614 11.6572 25.4723 11.6788 25.4723H13.5479C13.5683 25.4723 13.5785 25.4619 13.5785 25.4412C13.5796 23.7223 13.5792 22.0035 13.5773 20.2846C13.5762 19.4967 14.7079 19.4894 14.7079 20.2563C14.7083 23.0978 14.71 25.9398 14.713 28.7824C14.713 28.8001 14.7221 28.809 14.7402 28.809H15.9257C15.9442 28.809 15.9534 28.7998 15.9534 28.7813C15.953 27.7134 15.9534 26.6455 15.9546 25.5777C15.9546 25.4489 15.971 25.3494 16.0038 25.2792C16.2009 24.8561 16.8121 24.834 17.016 25.2571C17.0613 25.3511 17.0838 25.4999 17.0834 25.7034C17.0811 26.7275 17.0813 27.7519 17.084 28.7767C17.084 28.7983 17.0947 28.809 17.1163 28.809H18.3748C18.3937 28.809 18.4031 28.7998 18.4031 28.7813C18.4031 26.9102 18.4031 25.0392 18.4031 23.1682C18.4031 22.9601 18.4296 22.8079 18.4824 22.7117C18.5821 22.5289 18.7498 22.4377 18.9854 22.4381C20.2745 22.4388 21.5639 22.4388 22.8534 22.4381C23.3983 22.4381 23.5874 22.6335 23.5874 23.1942C23.5871 25.0558 23.5873 26.9178 23.588 28.7801C23.588 28.7994 23.5976 28.809 23.6169 28.809H24.8754C24.8947 28.809 24.9043 28.7992 24.9043 28.7796C24.9051 27.7087 24.904 26.6374 24.9009 25.5658C24.8987 24.9518 25.6741 24.698 25.9646 25.2469C26.013 25.3379 26.0371 25.4659 26.0371 25.6309C26.0364 26.6795 26.0368 27.7293 26.0383 28.7801C26.0383 28.7994 26.0479 28.809 26.0672 28.809H27.2459C27.2681 28.809 27.2793 28.7979 27.2793 28.7756V7.00861C27.2793 6.99049 27.2708 6.9784 27.2538 6.97236L14.7271 2.325C14.7252 2.32428 14.7231 2.32403 14.7211 2.32428C14.719 2.32452 14.717 2.32526 14.7153 2.32642C14.7136 2.32759 14.7122 2.32914 14.7112 2.33097C14.7102 2.33279 14.7096 2.33482 14.7096 2.33689C14.71 6.5974 14.7102 10.8572 14.7102 15.1161C14.7102 15.7012 13.9257 15.9131 13.6617 15.4033C13.6096 15.3021 13.5834 15.1486 13.583 14.9428ZM10.5159 22.1424C10.5159 22.1384 10.5143 22.1345 10.5114 22.1316C10.5086 22.1287 10.5047 22.1271 10.5006 22.1271H6.35566C6.35161 22.1271 6.34772 22.1287 6.34485 22.1316C6.34198 22.1345 6.34037 22.1384 6.34037 22.1424V25.4525C6.34037 25.4566 6.34198 25.4604 6.34485 25.4633C6.34772 25.4662 6.35161 25.4678 6.35566 25.4678H10.5006C10.5047 25.4678 10.5086 25.4662 10.5114 25.4633C10.5143 25.4604 10.5159 25.4566 10.5159 25.4525V22.1424ZM22.4552 23.5856C22.4552 23.5814 22.4535 23.5774 22.4506 23.5744C22.4476 23.5714 22.4435 23.5698 22.4393 23.5698H19.5484C19.5442 23.5698 19.5402 23.5714 19.5372 23.5744C19.5342 23.5774 19.5325 23.5814 19.5325 23.5856V28.7932C19.5325 28.7974 19.5342 28.8014 19.5372 28.8044C19.5402 28.8074 19.5442 28.809 19.5484 28.809H22.4393C22.4435 28.809 22.4476 28.8074 22.4506 28.8044C22.4535 28.8014 22.4552 28.7974 22.4552 28.7932V23.5856ZM13.5762 26.647C13.5762 26.6424 13.5744 26.6379 13.5711 26.6346C13.5678 26.6313 13.5633 26.6295 13.5587 26.6295H3.28857C3.28392 26.6295 3.27945 26.6313 3.27616 26.6346C3.27287 26.6379 3.27102 26.6424 3.27102 26.647V28.7915C3.27102 28.7961 3.27287 28.8006 3.27616 28.8039C3.27945 28.8072 3.28392 28.809 3.28857 28.809H13.5587C13.5633 28.809 13.5678 28.8072 13.5711 28.8039C13.5744 28.8006 13.5762 28.7961 13.5762 28.7915V26.647Z" fill="white"/>
<path id="Vector_2" d="M17.3653 6.36632C18.0869 6.63083 18.8096 6.89365 19.5278 7.16665C20.0126 7.35017 20.2035 7.41417 20.2035 7.94773C20.2028 9.44228 20.2028 10.9367 20.2035 12.4308C20.2039 12.6842 20.1822 12.857 20.1384 12.9491C20.0075 13.2227 19.7606 13.2606 19.4576 13.2601C18.4833 13.2593 17.5093 13.2595 16.5355 13.2606C16.301 13.2606 16.1328 13.1679 16.0308 12.9825C15.9794 12.8896 15.9538 12.7497 15.9538 12.5628C15.9534 10.7462 15.953 8.92969 15.9526 7.11341C15.9526 6.8657 15.9693 6.69937 16.0025 6.61441C16.1446 6.24794 16.6029 6.27003 16.9761 6.28646C17.106 6.2925 17.2357 6.31912 17.3653 6.36632ZM19.0701 8.21394C19.0701 8.21023 19.069 8.20661 19.0669 8.20357C19.0647 8.20053 19.0617 8.19822 19.0582 8.19695L17.107 7.47591C17.1042 7.47491 17.1013 7.47458 17.0984 7.47496C17.0955 7.47533 17.0928 7.4764 17.0904 7.47807C17.088 7.47973 17.086 7.48195 17.0847 7.48454C17.0833 7.48712 17.0826 7.48999 17.0826 7.4929V12.1097C17.0826 12.1145 17.0845 12.1191 17.0879 12.1225C17.0913 12.1259 17.0959 12.1278 17.1007 12.1278H19.052C19.0568 12.1278 19.0614 12.1259 19.0648 12.1225C19.0682 12.1191 19.0701 12.1145 19.0701 12.1097V8.21394Z" fill="white"/>
<path id="Vector_3" d="M22.5493 8.28866L25.668 9.443C25.7763 9.48304 25.8698 9.55533 25.9358 9.65011C26.0019 9.7449 26.0373 9.85764 26.0373 9.97315V12.6942C26.0373 12.8441 25.9777 12.9879 25.8717 13.0939C25.7657 13.1999 25.6219 13.2594 25.472 13.2594H22.3534C22.2034 13.2594 22.0597 13.1999 21.9537 13.0939C21.8476 12.9879 21.7881 12.8441 21.7881 12.6942V8.81882C21.7881 8.72771 21.8101 8.63795 21.8523 8.5572C21.8945 8.47644 21.9555 8.40707 22.0303 8.35501C22.1051 8.30294 22.1913 8.26972 22.2817 8.25816C22.3721 8.24661 22.4639 8.25707 22.5493 8.28866ZM22.9424 9.64011C22.9397 9.6391 22.9367 9.63878 22.9339 9.63915C22.931 9.63953 22.9282 9.64059 22.9258 9.64226C22.9234 9.64393 22.9215 9.64615 22.9201 9.64873C22.9188 9.65131 22.9181 9.65418 22.9181 9.6571V12.1096C22.9181 12.1144 22.92 12.1191 22.9234 12.1225C22.9268 12.1259 22.9314 12.1278 22.9362 12.1278H24.8863C24.8911 12.1278 24.8957 12.1259 24.8991 12.1225C24.9025 12.1191 24.9045 12.1144 24.9045 12.1096V10.3781C24.9044 10.3744 24.9033 10.3708 24.9012 10.3678C24.899 10.3647 24.896 10.3624 24.8926 10.3611L22.9424 9.64011Z" fill="white"/>
<path id="Vector_4" d="M5.57984 15.1354C6.7472 14.646 7.91173 14.1521 9.07966 13.6639C9.15814 13.631 9.24232 13.6142 9.32718 13.6146C9.79843 13.6157 10.2823 13.6155 10.7789 13.614C11.0504 13.6133 11.232 13.6333 11.3238 13.6741C11.6251 13.8072 11.6466 14.0762 11.646 14.4002C11.6445 15.7796 11.6445 17.159 11.646 18.5384C11.6464 18.7917 11.6274 18.9622 11.5888 19.0498C11.4705 19.3206 11.2331 19.3767 10.9375 19.3767C9.30094 19.3767 7.66421 19.3768 6.0273 19.3772C5.78337 19.3772 5.61741 19.3572 5.52943 19.3172C5.26888 19.1994 5.20827 18.9722 5.20827 18.6845C5.20752 17.6789 5.20733 16.6736 5.20771 15.6684C5.20771 15.4173 5.33175 15.2396 5.57984 15.1354ZM9.25865 14.8154C8.29292 15.2226 7.32833 15.627 6.36204 16.0354C6.34769 16.0415 6.34052 16.0522 6.34052 16.0677V18.2172C6.34052 18.2357 6.34996 18.245 6.36884 18.245H10.4889C10.507 18.245 10.5161 18.2359 10.5161 18.2178V14.7769C10.5161 14.7587 10.507 14.7497 10.4889 14.7497C10.1789 14.744 9.87018 14.7442 9.56281 14.7502C9.45821 14.7521 9.35682 14.7738 9.25865 14.8154Z" fill="white"/>
<path id="Vector_5" d="M20.2034 15.3121V20.0195C20.2034 20.1696 20.1437 20.3135 20.0376 20.4196C19.9315 20.5257 19.7876 20.5854 19.6375 20.5854H16.5195C16.3694 20.5854 16.2255 20.5257 16.1193 20.4196C16.0132 20.3135 15.9536 20.1696 15.9536 20.0195V15.3121C15.9536 15.162 16.0132 15.0181 16.1193 14.912C16.2255 14.8059 16.3694 14.7463 16.5195 14.7463H19.6375C19.7876 14.7463 19.9315 14.8059 20.0376 14.912C20.1437 15.0181 20.2034 15.162 20.2034 15.3121ZM19.0705 15.8938C19.0705 15.8889 19.0686 15.8841 19.0651 15.8806C19.0616 15.8771 19.0568 15.8751 19.0519 15.8751H17.1012C17.0962 15.8751 17.0914 15.8771 17.0879 15.8806C17.0844 15.8841 17.0825 15.8889 17.0825 15.8938V19.4373C17.0825 19.4422 17.0844 19.447 17.0879 19.4505C17.0914 19.454 17.0962 19.4559 17.1012 19.4559H19.0519C19.0568 19.4559 19.0616 19.454 19.0651 19.4505C19.0686 19.447 19.0705 19.4422 19.0705 19.4373V15.8938Z" fill="white"/>
<path id="Vector_6" d="M21.7876 20.0195V15.3121C21.7876 15.162 21.8472 15.0181 21.9533 14.912C22.0594 14.8059 22.2034 14.7463 22.3534 14.7463H25.4715C25.6216 14.7463 25.7655 14.8059 25.8716 14.912C25.9777 15.0181 26.0373 15.162 26.0373 15.3121V20.0195C26.0373 20.1696 25.9777 20.3135 25.8716 20.4196C25.7655 20.5257 25.6216 20.5854 25.4715 20.5854H22.3534C22.2034 20.5854 22.0594 20.5257 21.9533 20.4196C21.8472 20.3135 21.7876 20.1696 21.7876 20.0195ZM24.9045 15.8927C24.9045 15.8882 24.9027 15.8839 24.8996 15.8807C24.8964 15.8775 24.892 15.8757 24.8875 15.8757H22.9346C22.9301 15.8757 22.9257 15.8775 22.9226 15.8807C22.9194 15.8839 22.9176 15.8882 22.9176 15.8927V19.4395C22.9176 19.444 22.9194 19.4483 22.9226 19.4515C22.9257 19.4547 22.9301 19.4565 22.9346 19.4565H24.8875C24.892 19.4565 24.8964 19.4547 24.8996 19.4515C24.9027 19.4483 24.9045 19.444 24.9045 19.4395V15.8927Z" fill="white"/>
<path id="Vector_7" d="M14.1452 18.2608C14.4568 18.2608 14.7093 18.0083 14.7093 17.6967C14.7093 17.3851 14.4568 17.1326 14.1452 17.1326C13.8336 17.1326 13.5811 17.3851 13.5811 17.6967C13.5811 18.0083 13.8336 18.2608 14.1452 18.2608Z" fill="white"/>
</g>
<defs>
<clipPath id="clip0_209_1269">
<rect width="29" height="29" fill="white" transform="translate(0.775391 0.941833)"/>
</clipPath>
</defs>
</svg>
