<svg width="37" height="39" viewBox="0 0 37 39" fill="none" xmlns="http://www.w3.org/2000/svg">
<g id="Group 69600">
<path id="Vector" d="M5.49149 19.9072C5.48256 25.7877 5.48204 31.6679 5.48992 37.5478C5.49071 38.0064 5.33864 38.3846 4.83831 38.3846C3.64909 38.3851 2.46065 38.3846 1.27301 38.383C0.756922 38.3822 0.524488 38.1608 0.524488 37.6581C0.523438 29.0163 0.523175 20.3747 0.5237 11.7334C0.5237 11.3962 0.665524 11.2575 0.957052 11.081C6.77028 7.5585 12.5832 4.036 18.3959 0.5135C18.6528 0.357494 18.8907 0.420527 19.1515 0.578109C24.9375 4.08117 30.7231 7.58476 36.5085 11.0889C36.837 11.2882 36.9253 11.4356 36.9253 11.8413C36.9253 20.4658 36.9253 29.0903 36.9253 37.7148C36.9253 38.2892 36.5439 38.3869 36.0357 38.3861C34.9558 38.384 33.8763 38.3835 32.7974 38.3846C32.249 38.3846 31.9622 38.2081 31.9622 37.6447C31.9617 31.7296 31.9614 25.8184 31.9614 19.9111C31.9614 19.9056 31.9603 19.9 31.9582 19.8949C31.9561 19.8897 31.9529 19.885 31.949 19.8811C31.945 19.8771 31.9403 19.874 31.9352 19.8718C31.93 19.8697 31.9245 19.8686 31.9189 19.8686H5.5301C5.50436 19.8686 5.49149 19.8815 5.49149 19.9072ZM18.704 1.80331L1.81982 12.0446C1.80902 12.0511 1.80008 12.0603 1.79387 12.0714C1.78766 12.0824 1.78439 12.0949 1.78436 12.1076V37.0648C1.78436 37.0805 1.79059 37.0955 1.80167 37.1066C1.81275 37.1177 1.82778 37.1239 1.84345 37.1239H4.12998C4.15568 37.1239 4.18033 37.1136 4.19851 37.0953C4.21668 37.077 4.22689 37.0521 4.22689 37.0262C4.22689 29.9187 4.22689 22.8067 4.22689 15.6903C4.22689 15.2104 4.36714 14.8259 4.89662 14.8259C14.0842 14.8259 23.2718 14.8259 32.4594 14.8259C33.0275 14.8259 33.2221 15.1057 33.2221 15.6659C33.2221 22.7807 33.2221 29.9132 33.2221 37.0632C33.2221 37.0793 33.2285 37.0947 33.2399 37.1061C33.2512 37.1175 33.2667 37.1239 33.2828 37.1239H35.6055C35.6212 37.1239 35.6362 37.1177 35.6473 37.1066C35.6584 37.0955 35.6646 37.0805 35.6646 37.0648V12.1061C35.6646 12.0777 35.6525 12.0559 35.6284 12.0407L18.7568 1.80725C18.7374 1.79517 18.7198 1.79386 18.704 1.80331ZM31.9118 18.6079C31.925 18.6079 31.9376 18.6027 31.9469 18.5934C31.9562 18.5841 31.9614 18.5715 31.9614 18.5583V16.1362C31.9614 16.1231 31.9562 16.1105 31.9469 16.1011C31.9376 16.0918 31.925 16.0866 31.9118 16.0866H5.53719C5.52403 16.0866 5.5114 16.0918 5.50209 16.1011C5.49278 16.1105 5.48755 16.1231 5.48755 16.1362V18.5583C5.48755 18.5715 5.49278 18.5841 5.50209 18.5934C5.5114 18.6027 5.52403 18.6079 5.53719 18.6079H31.9118Z" fill="#2EB3D0"/>
<path id="Vector_2" d="M13.0555 35.5228C13.0476 36.1731 13.0463 36.8237 13.0515 37.4745C13.0571 38.0654 12.9255 38.3837 12.2983 38.3837C10.9604 38.3843 9.62255 38.3848 8.28467 38.3853C7.99944 38.3853 7.80352 38.2779 7.69689 38.0631C7.64226 37.9528 7.61494 37.7555 7.61494 37.4713C7.61442 34.991 7.61494 32.5104 7.61652 30.0295C7.61652 29.1951 7.69846 28.6325 8.14363 28.0046C8.37764 27.6744 8.78342 27.3277 9.11986 27.0078C9.2081 26.9243 9.27324 26.8256 9.31526 26.7116C9.83738 25.3081 10.3566 23.9037 10.873 22.4986C11.124 21.8168 11.5671 21.3737 12.2022 21.1694C12.4538 21.0885 12.8932 21.0483 13.5204 21.0489C17.161 21.051 20.8017 21.0515 24.4424 21.0504C24.9325 21.0499 25.2926 21.0875 25.5226 21.1631C26.3846 21.446 26.6919 22.0156 27.0197 22.902C27.4945 24.189 27.9702 25.4754 28.4466 26.7612C28.5632 27.0772 28.8941 27.364 29.1163 27.6185C29.5854 28.1548 29.821 28.7822 29.8231 29.5008C29.8304 32.1818 29.8338 34.8631 29.8333 37.5446C29.8333 38.1159 29.6489 38.3837 29.0706 38.3837C27.7359 38.3843 26.4014 38.3848 25.0672 38.3853C24.4779 38.3861 24.3951 37.9591 24.3967 37.4477C24.3988 36.8027 24.3988 36.1626 24.3967 35.5276C24.3967 35.5121 24.3906 35.4973 24.3796 35.4863C24.3687 35.4754 24.3539 35.4693 24.3384 35.4693H13.1099C13.0741 35.4693 13.056 35.4871 13.0555 35.5228ZM12.0737 22.906C11.6207 24.1367 11.1684 25.3674 10.713 26.5973C10.7111 26.6027 10.7106 26.6084 10.7113 26.614C10.7121 26.6195 10.7142 26.6249 10.7174 26.6295C10.7206 26.6341 10.7249 26.6379 10.7299 26.6405C10.7349 26.6432 10.7405 26.6446 10.7461 26.6446H26.9976C27.027 26.6446 27.0367 26.6307 27.0268 26.6029C26.5913 25.3858 26.1454 24.1724 25.6889 22.9627C25.4966 22.4529 25.2059 22.3111 24.6504 22.3111C20.8437 22.3111 17.0373 22.3111 13.2312 22.3111C12.671 22.3111 12.2723 22.367 12.0737 22.906ZM10.0102 27.9321C9.3775 28.5136 8.87718 28.8051 8.87639 29.7726C8.87482 31.234 8.87482 32.6871 8.87639 34.1322C8.87639 34.1524 8.88436 34.1719 8.89855 34.1862C8.91273 34.2005 8.93197 34.2086 8.95203 34.2086H28.497C28.5173 34.2086 28.5367 34.2005 28.5511 34.1862C28.5654 34.1719 28.5734 34.1524 28.5734 34.1322C28.574 32.5973 28.5724 31.0535 28.5687 29.5008C28.5671 28.7578 28.1503 28.419 27.687 27.9305C27.6707 27.9137 27.6508 27.9053 27.6272 27.9053H10.078C10.0532 27.9053 10.029 27.9149 10.0102 27.9321ZM11.7909 35.5394C11.7909 35.5208 11.7835 35.5029 11.7703 35.4898C11.7572 35.4766 11.7394 35.4693 11.7208 35.4693H8.94573C8.92713 35.4693 8.90929 35.4766 8.89614 35.4898C8.88299 35.5029 8.8756 35.5208 8.8756 35.5394V37.0537C8.8756 37.0723 8.88299 37.0902 8.89614 37.1033C8.90929 37.1165 8.92713 37.1239 8.94573 37.1239H11.7208C11.7394 37.1239 11.7572 37.1165 11.7703 37.1033C11.7835 37.0902 11.7909 37.0723 11.7909 37.0537V35.5394ZM28.5742 35.5441C28.5742 35.5243 28.5663 35.5052 28.5523 35.4912C28.5383 35.4771 28.5192 35.4693 28.4994 35.4693H25.7322C25.7124 35.4693 25.6933 35.4771 25.6793 35.4912C25.6653 35.5052 25.6574 35.5243 25.6574 35.5441V37.049C25.6574 37.0689 25.6653 37.0879 25.6793 37.1019C25.6933 37.116 25.7124 37.1239 25.7322 37.1239H28.4994C28.5192 37.1239 28.5383 37.116 28.5523 37.1019C28.5663 37.0879 28.5742 37.0689 28.5742 37.049V35.5441Z" fill="#2EB3D0"/>
<path id="Vector_3" d="M12.8001 29.593C14.0222 30.1532 14.1798 31.8567 13.1571 32.6824C12.5393 33.1812 11.4961 33.2615 10.7878 32.9007C9.49326 32.2404 9.4192 30.3935 10.6799 29.6687C11.2913 29.3172 12.1603 29.2991 12.8001 29.593ZM12.5668 31.2101C12.5666 31.0669 12.5095 30.9297 12.4081 30.8287C12.3067 30.7277 12.1693 30.671 12.0262 30.6713L11.5834 30.6721C11.5125 30.6722 11.4423 30.6863 11.3769 30.7135C11.3115 30.7407 11.252 30.7806 11.202 30.8308C11.152 30.881 11.1123 30.9406 11.0853 31.0061C11.0583 31.0716 11.0445 31.1418 11.0446 31.2127L11.0447 31.2978C11.045 31.441 11.1021 31.5781 11.2035 31.6792C11.3049 31.7802 11.4423 31.8368 11.5854 31.8366L12.0282 31.8358C12.0991 31.8357 12.1692 31.8216 12.2347 31.7944C12.3001 31.7671 12.3595 31.7273 12.4096 31.6771C12.4596 31.6269 12.4993 31.5673 12.5263 31.5018C12.5533 31.4362 12.5671 31.366 12.567 31.2952L12.5668 31.2101Z" fill="#2EB3D0"/>
<path id="Vector_4" d="M27.3797 30.2564C28.1393 31.4478 27.3963 32.8629 26.0529 33.089C25.7078 33.1468 25.3921 33.141 25.1058 33.0717C22.7381 32.4981 23.3165 29.1739 25.8756 29.4079C26.5564 29.4698 27.0578 29.7527 27.3797 30.2564ZM26.4043 31.2122C26.4043 31.0688 26.3474 30.9314 26.246 30.83C26.1446 30.7286 26.0072 30.6717 25.8638 30.6717H25.4226C25.2792 30.6717 25.1417 30.7286 25.0404 30.83C24.939 30.9314 24.8821 31.0688 24.8821 31.2122V31.2957C24.8821 31.4391 24.939 31.5765 25.0404 31.6779C25.1417 31.7793 25.2792 31.8362 25.4226 31.8362H25.8638C26.0072 31.8362 26.1446 31.7793 26.246 31.6779C26.3474 31.5765 26.4043 31.4391 26.4043 31.2957V31.2122Z" fill="#2EB3D0"/>
<path id="Vector_5" d="M22.5065 32.4689C22.5065 32.6378 22.4395 32.7997 22.3201 32.9191C22.2007 33.0385 22.0387 33.1055 21.8699 33.1055H15.5004C15.3316 33.1055 15.1696 33.0385 15.0502 32.9191C14.9308 32.7997 14.8638 32.6378 14.8638 32.4689V30.1178C14.8638 29.9489 14.9308 29.787 15.0502 29.6676C15.1696 29.5482 15.3316 29.4811 15.5004 29.4811H21.8699C22.0387 29.4811 22.2007 29.5482 22.3201 29.6676C22.4395 29.787 22.5065 29.9489 22.5065 30.1178V32.4689ZM21.3247 30.7922C21.3247 30.7789 21.3193 30.766 21.3099 30.7566C21.3004 30.7471 21.2876 30.7418 21.2742 30.7418H16.1749C16.1615 30.7418 16.1487 30.7471 16.1392 30.7566C16.1297 30.766 16.1244 30.7789 16.1244 30.7922V31.7945C16.1244 31.8078 16.1297 31.8207 16.1392 31.8301C16.1487 31.8396 16.1615 31.8449 16.1749 31.8449H21.2742C21.2876 31.8449 21.3004 31.8396 21.3099 31.8301C21.3193 31.8207 21.3247 31.8078 21.3247 31.7945V30.7922Z" fill="#2EB3D0"/>
</g>
</svg>
