<svg width="38" height="38" viewBox="0 0 38 38" fill="none" xmlns="http://www.w3.org/2000/svg">
<g id="Group 69598">
<path id="Vector" d="M37.5403 36.9898C37.5403 37.1551 37.4747 37.3136 37.3578 37.4304C37.2409 37.5473 37.0825 37.6129 36.9172 37.6129H1.14607C0.980812 37.6129 0.822317 37.5473 0.705458 37.4304C0.5886 37.3136 0.522949 37.1551 0.522949 36.9898V1.21871C0.522949 1.05344 0.5886 0.894949 0.705458 0.77809C0.822317 0.661232 0.980812 0.595581 1.14607 0.595581H36.9172C37.0825 0.595581 37.2409 0.661232 37.3578 0.77809C37.4747 0.894949 37.5403 1.05344 37.5403 1.21871V36.9898ZM23.3503 17.258C24.0028 17.2588 24.1871 18.141 23.6465 18.4133C23.5498 18.4621 23.3994 18.4865 23.1953 18.4865C21.8231 18.4865 20.4493 18.487 19.074 18.4881C19.0468 18.4881 19.0332 18.5014 19.0332 18.5282C19.0306 19.0891 19.0298 19.6505 19.0309 20.2125C19.0316 20.7577 18.7794 20.9544 18.2334 20.9544C12.7616 20.9549 7.2817 20.9551 1.79388 20.9551C1.78406 20.9551 1.77465 20.959 1.7677 20.966C1.76076 20.9729 1.75686 20.9823 1.75686 20.9921V36.3019C1.75686 36.3224 1.76499 36.342 1.77945 36.3564C1.79391 36.3709 1.81353 36.379 1.83398 36.379H15.262C15.28 36.379 15.2973 36.372 15.31 36.3594C15.3227 36.3468 15.3299 36.3297 15.3299 36.3119V35.2045C15.3299 35.1888 15.3236 35.1736 15.3125 35.1625C15.3014 35.1514 15.2863 35.1451 15.2705 35.1451C12.9502 35.1451 10.6397 35.1451 8.33901 35.1451C7.62874 35.1443 7.06191 34.9539 6.79971 34.2752C6.72567 34.084 6.68917 33.7724 6.6902 33.3405C6.69277 32.4357 6.6938 31.5305 6.69328 30.6251C6.69277 30.2812 6.72747 30.0213 6.79739 29.8455C7.06268 29.1784 7.61023 28.9763 8.31356 28.9763C10.6277 28.9753 12.9487 28.975 15.2767 28.9756C15.3122 28.9756 15.3299 28.9578 15.3299 28.9223C15.3294 27.544 15.3296 26.1568 15.3307 24.761C15.3314 24.2258 15.5952 24.0422 16.1227 24.0415C16.8579 24.0394 17.5931 24.0391 18.3283 24.0407C18.4833 24.0415 18.6507 24.0916 18.8288 24.0746C19.0643 24.0515 19.1877 24.0399 19.199 24.0399C20.5373 24.0399 21.8761 24.0399 23.2154 24.0399C24.2303 24.0407 24.1979 25.28 23.2524 25.2754C21.8632 25.2692 20.4681 25.27 19.0671 25.2777C19.0435 25.2777 19.0316 25.2895 19.0316 25.3132V36.3019C19.0316 36.3224 19.0398 36.342 19.0542 36.3564C19.0687 36.3709 19.0883 36.379 19.1088 36.379L23.8909 36.3798C23.9112 36.3798 23.9306 36.3718 23.9449 36.3574C23.9592 36.3431 23.9673 36.3237 23.9673 36.3035C23.9668 35.3451 23.9673 34.3778 23.9688 33.4015C23.9688 33.2431 23.9873 33.1228 24.0243 33.0405C24.2372 32.5693 24.9143 32.557 25.1341 33.0243C25.1788 33.1189 25.2012 33.2639 25.2012 33.4593C25.2012 34.4027 25.2012 35.3495 25.2012 36.2996C25.2012 36.3207 25.2096 36.3409 25.2245 36.3558C25.2394 36.3707 25.2596 36.379 25.2806 36.379H28.8428C28.8585 36.379 28.8736 36.3728 28.8848 36.3616C28.8959 36.3505 28.9022 36.3354 28.9022 36.3197C28.9037 35.0143 28.9037 33.7012 28.9022 32.3804C28.9014 31.8914 28.9685 31.4418 29.5392 31.4426C31.7777 31.4442 34.0136 31.4442 36.247 31.4426C36.2628 31.4426 36.2779 31.4364 36.289 31.4252C36.3001 31.4141 36.3064 31.399 36.3064 31.3832V29.0334C36.3064 29.0181 36.3003 29.0033 36.2895 28.9925C36.2786 28.9817 36.2639 28.9756 36.2486 28.9756H25.2398C25.214 28.9756 25.2012 28.9884 25.2012 29.0141C25.2004 29.2894 25.2367 29.6396 25.1372 29.8671C24.956 30.2827 24.2889 30.3205 24.0668 29.9349C23.8994 29.6442 23.9673 29.0427 23.9665 28.6779C23.965 28.1889 24.0336 27.7409 24.6035 27.7409C28.4831 27.7419 32.3592 27.7422 36.2316 27.7416C36.2414 27.7416 36.2511 27.7397 36.2602 27.736C36.2693 27.7322 36.2775 27.7267 36.2845 27.7197C36.2914 27.7128 36.2969 27.7045 36.3007 27.6955C36.3045 27.6864 36.3064 27.6767 36.3064 27.6668V1.88733C36.3064 1.87199 36.3003 1.85728 36.2895 1.84643C36.2786 1.83559 36.2639 1.82949 36.2486 1.82949H34.4964C34.4707 1.82949 34.4578 1.84235 34.4578 1.86805C34.4537 2.62382 34.453 3.37934 34.4555 4.1346C34.4586 4.98368 33.9249 4.91659 33.2625 4.91427C33.2352 4.91376 33.2216 4.92738 33.2216 4.95515C33.2216 5.31041 33.2214 5.66619 33.2208 6.02248C33.2193 6.56849 32.9725 6.7636 32.4242 6.76437C31.2633 6.7654 30.1024 6.76591 28.9415 6.76591C28.3947 6.76591 28.2844 6.38032 28.2867 5.89446C28.2878 5.5829 28.2873 5.27005 28.2852 4.95592C28.2847 4.92867 28.2708 4.91504 28.2436 4.91504C27.7631 4.91119 27.049 4.98599 27.0505 4.29732C27.0531 3.48602 27.0533 2.68166 27.0513 1.88425C27.0513 1.86973 27.0455 1.8558 27.0353 1.84553C27.025 1.83526 27.0111 1.82949 26.9965 1.82949H21.538C21.5123 1.82949 21.4995 1.84235 21.4995 1.86805V4.8171C21.4995 4.84744 21.5141 4.85952 21.5434 4.85335C22.7071 4.61736 23.6372 3.93948 24.177 2.88295C24.2182 2.80274 24.2683 2.72896 24.3274 2.66161C24.6498 2.29684 25.2174 2.41946 25.3732 2.87678C25.4634 3.13898 25.33 3.37805 25.175 3.63872C24.3498 5.02224 23.1398 5.84511 21.545 6.10731C21.5208 6.11143 21.5069 6.12556 21.5033 6.14973C21.4439 6.61322 21.0097 6.9402 20.5748 6.68185C20.3018 6.51913 20.2663 6.30011 20.2655 5.96773C20.2655 4.6058 20.2655 3.24618 20.2655 1.88888C20.2655 1.88108 20.264 1.87336 20.261 1.86615C20.258 1.85895 20.2537 1.8524 20.2481 1.84689C20.2426 1.84137 20.2361 1.837 20.2289 1.83401C20.2217 1.83103 20.214 1.82949 20.2062 1.82949H19.0717C19.0455 1.82949 19.0324 1.8426 19.0324 1.86882C19.0314 5.51503 19.0311 9.1615 19.0316 12.8082C19.0316 13.3542 18.781 13.5493 18.2342 13.5501C17.4846 13.5517 16.735 13.5524 15.9854 13.5524C15.4687 13.5517 15.3322 13.2 15.3307 12.7288C15.3291 12.1992 15.3291 11.6679 15.3307 11.1347C15.3307 11.1214 15.3254 11.1087 15.316 11.0993C15.3066 11.0899 15.2938 11.0846 15.2805 11.0846C13.0415 11.082 10.7966 11.0823 8.54569 11.0854C8.08195 11.0864 7.75136 11.0486 7.55393 10.972C7.19044 10.8311 6.93878 10.5772 6.79893 10.2101C6.72541 10.0173 6.68917 9.70802 6.6902 9.28232C6.69328 8.37591 6.69431 7.46924 6.69328 6.56232C6.69277 6.21991 6.72721 5.96104 6.79662 5.78572C7.06191 5.1171 7.61023 4.91504 8.31433 4.91504C10.6197 4.91402 12.9328 4.91376 15.2535 4.91427C15.2738 4.91427 15.2932 4.90623 15.3075 4.89191C15.3219 4.87759 15.3299 4.85817 15.3299 4.83793V1.90661C15.3299 1.88616 15.3218 1.86654 15.3073 1.85208C15.2928 1.83762 15.2732 1.82949 15.2528 1.82949H1.79542C1.76971 1.82949 1.75686 1.84235 1.75686 1.86805V12.2399C1.75686 12.2607 1.76523 12.2807 1.78013 12.2955C1.79502 12.3102 1.81523 12.3185 1.83629 12.3185C2.8116 12.3165 3.78305 12.317 4.75064 12.3201C5.29356 12.3216 5.45783 12.6077 5.45783 13.1314C5.45885 14.4732 5.45911 15.8151 5.4586 17.157C5.4586 17.2207 5.49022 17.2526 5.55345 17.2526C11.486 17.2531 17.4183 17.2549 23.3503 17.258ZM17.7977 1.88733C17.7977 1.87199 17.7916 1.85728 17.7808 1.84643C17.7699 1.83559 17.7552 1.82949 17.7399 1.82949H16.6216C16.6063 1.82949 16.5916 1.83559 16.5807 1.84643C16.5699 1.85728 16.5638 1.87199 16.5638 1.88733V12.2599C16.5638 12.2752 16.5699 12.29 16.5807 12.3008C16.5916 12.3117 16.6063 12.3177 16.6216 12.3177H17.7399C17.7552 12.3177 17.7699 12.3117 17.7808 12.3008C17.7916 12.29 17.7977 12.2752 17.7977 12.2599V1.88733ZM33.2216 1.89504C33.2216 1.87766 33.2147 1.86099 33.2024 1.84869C33.1901 1.8364 33.1735 1.82949 33.1561 1.82949H28.3515C28.3341 1.82949 28.3175 1.8364 28.3052 1.84869C28.2929 1.86099 28.286 1.87766 28.286 1.89504V3.61481C28.286 3.6322 28.2929 3.64887 28.3052 3.66116C28.3175 3.67345 28.3341 3.68036 28.3515 3.68036H33.1561C33.1735 3.68036 33.1901 3.67345 33.2024 3.66116C33.2147 3.64887 33.2216 3.6322 33.2216 3.61481V1.89504ZM31.9877 4.98291C31.9877 4.97379 31.9859 4.96477 31.9824 4.95635C31.9789 4.94793 31.9738 4.94028 31.9674 4.93383C31.9609 4.92739 31.9533 4.92227 31.9449 4.91879C31.9364 4.9153 31.9274 4.9135 31.9183 4.9135H29.5893C29.5802 4.9135 29.5711 4.9153 29.5627 4.91879C29.5543 4.92227 29.5467 4.92739 29.5402 4.93383C29.5338 4.94028 29.5287 4.94793 29.5252 4.95635C29.5217 4.96477 29.5199 4.97379 29.5199 4.98291V5.46105C29.5199 5.47946 29.5272 5.49711 29.5402 5.51013C29.5532 5.52315 29.5709 5.53046 29.5893 5.53046H31.9183C31.9367 5.53046 31.9544 5.52315 31.9674 5.51013C31.9804 5.49711 31.9877 5.47946 31.9877 5.46105V4.98291ZM12.8628 6.26541C12.8628 6.23432 12.8505 6.2045 12.8285 6.18252C12.8065 6.16054 12.7767 6.14819 12.7456 6.14819H8.04441C8.01333 6.14819 7.98351 6.16054 7.96153 6.18252C7.93954 6.2045 7.92719 6.23432 7.92719 6.26541V9.7327C7.92719 9.74809 7.93022 9.76334 7.93612 9.77756C7.94201 9.79178 7.95064 9.8047 7.96153 9.81559C7.97241 9.82647 7.98533 9.83511 7.99956 9.841C8.01378 9.84689 8.02902 9.84992 8.04441 9.84992H12.7456C12.761 9.84992 12.7763 9.84689 12.7905 9.841C12.8047 9.83511 12.8176 9.82647 12.8285 9.81559C12.8394 9.8047 12.848 9.79178 12.8539 9.77756C12.8598 9.76334 12.8628 9.74809 12.8628 9.7327V6.26541ZM15.3299 6.21065C15.3299 6.19388 15.3232 6.1778 15.3114 6.16594C15.2995 6.15408 15.2834 6.14741 15.2667 6.14741H14.1592C14.1424 6.14741 14.1264 6.15408 14.1145 6.16594C14.1026 6.1778 14.096 6.19388 14.096 6.21065V9.78591C14.096 9.80268 14.1026 9.81877 14.1145 9.83063C14.1264 9.84249 14.1424 9.84915 14.1592 9.84915H15.2667C15.2834 9.84915 15.2995 9.84249 15.3114 9.83063C15.3232 9.81877 15.3299 9.80268 15.3299 9.78591V6.21065ZM4.22469 13.6164C4.22469 13.5993 4.21786 13.5828 4.20571 13.5706C4.19356 13.5585 4.17709 13.5517 4.15991 13.5517H1.82164C1.80446 13.5517 1.78798 13.5585 1.77583 13.5706C1.76369 13.5828 1.75686 13.5993 1.75686 13.6164V17.1886C1.75686 17.2058 1.76369 17.2223 1.77583 17.2344C1.78798 17.2466 1.80446 17.2534 1.82164 17.2534H4.15991C4.17709 17.2534 4.19356 17.2466 4.20571 17.2344C4.21786 17.2223 4.22469 17.2058 4.22469 17.1886V13.6164ZM17.7977 18.5467C17.7977 18.5309 17.7915 18.5158 17.7803 18.5047C17.7692 18.4936 17.7541 18.4873 17.7383 18.4873H1.81624C1.80845 18.4873 1.80072 18.4888 1.79352 18.4918C1.78631 18.4948 1.77977 18.4992 1.77425 18.5047C1.76874 18.5102 1.76437 18.5168 1.76138 18.524C1.7584 18.5312 1.75686 18.5389 1.75686 18.5467V19.6618C1.75686 19.6696 1.7584 19.6774 1.76138 19.6846C1.76437 19.6918 1.76874 19.6983 1.77425 19.7038C1.77977 19.7093 1.78631 19.7137 1.79352 19.7167C1.80072 19.7197 1.80845 19.7212 1.81624 19.7212H17.7383C17.7541 19.7212 17.7692 19.715 17.7803 19.7038C17.7915 19.6927 17.7977 19.6776 17.7977 19.6618V18.5467ZM17.7977 25.3332C17.7977 25.3173 17.7914 25.302 17.7801 25.2907C17.7688 25.2794 17.7535 25.2731 17.7376 25.2731H16.624C16.608 25.2731 16.5927 25.2794 16.5814 25.2907C16.5701 25.302 16.5638 25.3173 16.5638 25.3332V36.3181C16.5638 36.3341 16.5701 36.3494 16.5814 36.3606C16.5927 36.3719 16.608 36.3783 16.624 36.3783H17.7376C17.7535 36.3783 17.7688 36.3719 17.7801 36.3606C17.7914 36.3494 17.7977 36.3341 17.7977 36.3181V25.3332ZM12.8628 30.3259C12.8628 30.295 12.8506 30.2654 12.8287 30.2436C12.8069 30.2217 12.7773 30.2095 12.7464 30.2095H8.04364C8.01276 30.2095 7.98314 30.2217 7.9613 30.2436C7.93946 30.2654 7.92719 30.295 7.92719 30.3259V33.7948C7.92719 33.8256 7.93946 33.8553 7.9613 33.8771C7.98314 33.8989 8.01276 33.9112 8.04364 33.9112H12.7464C12.7773 33.9112 12.8069 33.8989 12.8287 33.8771C12.8506 33.8553 12.8628 33.8256 12.8628 33.7948V30.3259ZM15.3299 30.2704C15.3299 30.254 15.3234 30.2383 15.3118 30.2268C15.3003 30.2152 15.2846 30.2087 15.2682 30.2087H14.1577C14.1413 30.2087 14.1256 30.2152 14.1141 30.2268C14.1025 30.2383 14.096 30.254 14.096 30.2704V33.8487C14.096 33.8651 14.1025 33.8808 14.1141 33.8924C14.1256 33.9039 14.1413 33.9104 14.1577 33.9104H15.2682C15.2846 33.9104 15.3003 33.9039 15.3118 33.8924C15.3234 33.8808 15.3299 33.8651 15.3299 33.8487V30.2704ZM31.3708 32.7398C31.3708 32.723 31.3641 32.7069 31.3522 32.695C31.3404 32.6832 31.3243 32.6765 31.3075 32.6765H30.2001C30.1833 32.6765 30.1672 32.6832 30.1554 32.695C30.1435 32.7069 30.1368 32.723 30.1368 32.7398V36.315C30.1368 36.3318 30.1435 36.3479 30.1554 36.3597C30.1672 36.3716 30.1833 36.3783 30.2001 36.3783H31.3075C31.3243 36.3783 31.3404 36.3716 31.3522 36.3597C31.3641 36.3479 31.3708 36.3318 31.3708 36.315V32.7398ZM33.8386 32.7421C33.8386 32.7247 33.8317 32.708 33.8194 32.6957C33.8071 32.6834 33.7904 32.6765 33.773 32.6765H32.6702C32.6528 32.6765 32.6362 32.6834 32.6239 32.6957C32.6116 32.708 32.6047 32.7247 32.6047 32.7421V36.3127C32.6047 36.3213 32.6064 36.3298 32.6097 36.3378C32.6129 36.3457 32.6178 36.353 32.6239 36.3591C32.63 36.3651 32.6372 36.37 32.6451 36.3733C32.6531 36.3766 32.6616 36.3783 32.6702 36.3783H33.773C33.7904 36.3783 33.8071 36.3714 33.8194 36.3591C33.8317 36.3468 33.8386 36.3301 33.8386 36.3127V32.7421ZM36.3064 32.7374C36.3064 32.7213 36.3 32.7058 36.2886 32.6944C36.2771 32.6829 36.2616 32.6765 36.2455 32.6765H35.1334C35.1173 32.6765 35.1018 32.6829 35.0903 32.6944C35.0789 32.7058 35.0725 32.7213 35.0725 32.7374V36.3173C35.0725 36.3335 35.0789 36.349 35.0903 36.3604C35.1018 36.3718 35.1173 36.3783 35.1334 36.3783H36.2455C36.2616 36.3783 36.2771 36.3718 36.2886 36.3604C36.3 36.349 36.3064 36.3335 36.3064 36.3173V32.7374Z" fill="#2EB3D0"/>
<path id="Vector_2" d="M35.0702 10.4661C35.0702 11.12 34.8104 11.7471 34.3481 12.2095C33.8857 12.6719 33.2586 12.9316 32.6047 12.9316C31.9508 12.9316 31.3237 12.6719 30.8613 12.2095C30.3989 11.7471 30.1392 11.12 30.1392 10.4661C30.1392 10.1423 30.2029 9.82174 30.3268 9.52261C30.4507 9.22348 30.6323 8.95169 30.8613 8.72274C31.0902 8.4938 31.362 8.31219 31.6612 8.18829C31.9603 8.06438 32.2809 8.00061 32.6047 8.00061C32.9284 8.00061 33.2491 8.06438 33.5482 8.18829C33.8473 8.31219 34.1191 8.4938 34.3481 8.72274C34.577 8.95169 34.7586 9.22348 34.8825 9.52261C35.0064 9.82174 35.0702 10.1423 35.0702 10.4661ZM33.8363 10.4669C33.8363 10.1403 33.7065 9.82699 33.4755 9.59602C33.2446 9.36505 32.9313 9.23529 32.6047 9.23529C32.278 9.23529 31.9648 9.36505 31.7338 9.59602C31.5028 9.82699 31.3731 10.1403 31.3731 10.4669C31.3731 10.7935 31.5028 11.1068 31.7338 11.3378C31.9648 11.5687 32.278 11.6985 32.6047 11.6985C32.9313 11.6985 33.2446 11.5687 33.4755 11.3378C33.7065 11.1068 33.8363 10.7935 33.8363 10.4669Z" fill="#2EB3D0"/>
<path id="Vector_3" d="M22.6823 15.5969C22.4872 14.8149 21.8432 14.2434 21.0281 14.1725C20.7972 14.1524 20.6446 14.1231 20.57 14.0846C20.1805 13.8825 20.1667 13.2309 20.5607 13.0203C20.9996 12.7874 21.9381 13.0758 22.3299 13.2933C23.3278 13.8491 23.8712 14.7031 23.9602 15.8552C23.9735 16.0208 23.9594 16.1534 23.9178 16.2532C23.7157 16.7398 23.0093 16.7637 22.7926 16.2886C22.7054 16.0974 22.7309 15.7912 22.6823 15.5969Z" fill="#2EB3D0"/>
<path id="Vector_4" d="M33.2232 24.7001C33.2201 24.9926 33.2194 25.2844 33.2209 25.5754C33.2255 26.2617 33.0836 26.5085 32.3872 26.5085C30.8875 26.5075 29.3881 26.5072 27.8889 26.5077C27.2588 26.5077 27.0467 26.3026 27.0521 25.6903C27.0547 25.3602 27.0542 25.0304 27.0506 24.7008C27.0501 24.6731 27.0359 24.6589 27.0082 24.6584C26.5987 24.6538 25.8745 24.7301 25.546 24.5959C25.3151 24.5013 25.1997 24.3096 25.1997 24.0206C25.2007 23.2633 25.2018 22.506 25.2028 21.7487C25.2028 21.2212 25.3863 20.9574 25.9215 20.9574C26.2855 20.9569 26.6498 20.9557 27.0143 20.9536C27.0193 20.9536 27.0242 20.9526 27.0288 20.9507C27.0334 20.9488 27.0375 20.946 27.041 20.9425C27.0446 20.939 27.0473 20.9349 27.0492 20.9303C27.0511 20.9257 27.0521 20.9208 27.0521 20.9158V19.7606C27.0521 19.7359 27.0398 19.7235 27.0151 19.7235C26.721 19.7194 26.4287 19.7184 26.1383 19.7205C25.6509 19.7243 25.1997 19.6534 25.1997 19.085C25.2007 18.3292 25.2018 17.5734 25.2028 16.8177C25.2036 16.2694 25.3948 16.0179 25.9447 16.021C26.2984 16.0226 26.6519 16.0213 27.0051 16.0172C27.0344 16.0167 27.0493 16.0017 27.0498 15.9724C27.0549 15.6727 27.0562 15.3763 27.0537 15.0833C27.049 14.6005 27.1316 14.1671 27.6884 14.1678C29.2441 14.1689 30.7999 14.1691 32.3556 14.1686C33.0212 14.1678 33.2302 14.3653 33.2209 15.0138C33.2168 15.3326 33.2183 15.6516 33.2255 15.9709C33.2266 16.0007 33.242 16.0159 33.2718 16.0164C33.5782 16.0215 33.8813 16.0228 34.181 16.0203C34.6553 16.0164 35.0741 16.1143 35.0733 16.655C35.0728 17.3984 35.0723 18.1416 35.0718 18.8845C35.0718 19.5145 34.8659 19.7259 34.2551 19.7212C33.923 19.7192 33.5911 19.7197 33.2595 19.7228C33.2343 19.7228 33.2217 19.7354 33.2217 19.7606V20.8973C33.2217 20.9116 33.2272 20.9253 33.2372 20.9355C33.2471 20.9457 33.2606 20.9516 33.2749 20.9521C33.5895 20.9582 33.9006 20.9598 34.208 20.9567C34.7594 20.9513 35.0687 21.0886 35.0702 21.6723C35.0728 22.4554 35.0738 23.2381 35.0733 24.0206C35.0733 24.5736 34.6399 24.66 34.1595 24.6569C33.8618 24.6543 33.5636 24.6548 33.2649 24.6584C33.2376 24.6589 33.2237 24.6728 33.2232 24.7001ZM31.9878 15.4611C31.9878 15.4456 31.9816 15.4307 31.9706 15.4197C31.9596 15.4087 31.9447 15.4025 31.9292 15.4025H28.3446C28.3291 15.4025 28.3142 15.4087 28.3032 15.4197C28.2922 15.4307 28.286 15.4456 28.286 15.4611V25.2152C28.286 25.2308 28.2922 25.2457 28.3032 25.2567C28.3142 25.2677 28.3291 25.2738 28.3446 25.2738H31.9292C31.9447 25.2738 31.9596 25.2677 31.9706 25.2567C31.9816 25.2457 31.9878 25.2308 31.9878 25.2152V15.4611ZM27.0521 17.3097C27.0521 17.2946 27.0461 17.28 27.0354 17.2693C27.0247 17.2586 27.0102 17.2526 26.995 17.2526H26.4922C26.4771 17.2526 26.4626 17.2586 26.4519 17.2693C26.4412 17.28 26.4352 17.2946 26.4352 17.3097V18.4295C26.4352 18.4446 26.4412 18.4591 26.4519 18.4698C26.4626 18.4805 26.4771 18.4865 26.4922 18.4865H26.995C27.0102 18.4865 27.0247 18.4805 27.0354 18.4698C27.0461 18.4591 27.0521 18.4446 27.0521 18.4295V17.3097ZM33.8386 17.3128C33.8386 17.2968 33.8323 17.2815 33.821 17.2702C33.8097 17.259 33.7944 17.2526 33.7785 17.2526H33.2818C33.2659 17.2526 33.2506 17.259 33.2393 17.2702C33.228 17.2815 33.2217 17.2968 33.2217 17.3128V18.4264C33.2217 18.4423 33.228 18.4576 33.2393 18.4689C33.2506 18.4802 33.2659 18.4865 33.2818 18.4865H33.7785C33.7944 18.4865 33.8097 18.4802 33.821 18.4689C33.8323 18.4576 33.8386 18.4423 33.8386 18.4264V17.3128ZM27.0521 22.2446C27.0521 22.2296 27.0462 22.2153 27.0356 22.2048C27.0251 22.1942 27.0107 22.1883 26.9958 22.1883H26.4915C26.4765 22.1883 26.4622 22.1942 26.4516 22.2048C26.4411 22.2153 26.4352 22.2296 26.4352 22.2446V23.3659C26.4352 23.3808 26.4411 23.3951 26.4516 23.4057C26.4622 23.4163 26.4765 23.4222 26.4915 23.4222H26.9958C27.0107 23.4222 27.0251 23.4163 27.0356 23.4057C27.0462 23.3951 27.0521 23.3808 27.0521 23.3659V22.2446ZM33.8396 22.249C33.8396 22.2411 33.8381 22.2332 33.8351 22.2259C33.8321 22.2186 33.8276 22.212 33.8221 22.2064C33.8165 22.2008 33.8099 22.1964 33.8026 22.1933C33.7953 22.1903 33.7875 22.1887 33.7796 22.1887L33.2829 22.1878C33.275 22.1878 33.2672 22.1894 33.2599 22.1924C33.2526 22.1954 33.2459 22.1998 33.2403 22.2054C33.2347 22.211 33.2303 22.2176 33.2273 22.2249C33.2242 22.2322 33.2227 22.24 33.2227 22.2479L33.2207 23.3615C33.2207 23.3694 33.2222 23.3772 33.2252 23.3845C33.2283 23.3918 33.2327 23.3985 33.2382 23.4041C33.2438 23.4097 33.2504 23.4141 33.2577 23.4171C33.265 23.4202 33.2729 23.4217 33.2808 23.4218L33.7774 23.4226C33.7853 23.4226 33.7931 23.4211 33.8004 23.4181C33.8077 23.4151 33.8144 23.4107 33.82 23.4051C33.8256 23.3995 33.83 23.3929 33.833 23.3856C33.8361 23.3783 33.8376 23.3705 33.8377 23.3626L33.8396 22.249Z" fill="#2EB3D0"/>
<path id="Vector_5" d="M22.7204 22.7119C22.6733 21.7711 21.9592 21.0384 21.0191 20.9582C20.7924 20.9387 20.6448 20.9115 20.5765 20.8765C20.1114 20.6351 20.1978 19.9842 20.6544 19.7613C20.7741 19.7027 20.979 19.6958 21.269 19.7405C22.7389 19.968 23.8618 21.1086 23.9582 22.6024C23.9844 23.0112 23.8502 23.3767 23.4083 23.4214C22.9772 23.4654 22.7397 23.1114 22.7204 22.7119Z" fill="#2EB3D0"/>
<path id="Vector_6" d="M14.0946 26.507C14.0946 26.9974 13.8998 27.4678 13.553 27.8146C13.2062 28.1615 12.7358 28.3563 12.2453 28.3563C11.7549 28.3563 11.2845 28.1615 10.9377 27.8146C10.5908 27.4678 10.396 26.9974 10.396 26.507C10.396 26.2641 10.4438 26.0236 10.5368 25.7993C10.6297 25.5749 10.7659 25.371 10.9377 25.1993C11.1094 25.0276 11.3132 24.8914 11.5376 24.7984C11.762 24.7055 12.0025 24.6577 12.2453 24.6577C12.7358 24.6577 13.2062 24.8525 13.553 25.1993C13.8998 25.5461 14.0946 26.0165 14.0946 26.507ZM12.86 26.5078C12.86 26.3447 12.7952 26.1884 12.6799 26.0731C12.5647 25.9579 12.4083 25.8931 12.2453 25.8931C12.0823 25.8931 11.926 25.9579 11.8107 26.0731C11.6954 26.1884 11.6307 26.3447 11.6307 26.5078C11.6307 26.6708 11.6954 26.8271 11.8107 26.9424C11.926 27.0576 12.0823 27.1224 12.2453 27.1224C12.4083 27.1224 12.5647 27.0576 12.6799 26.9424C12.7952 26.8271 12.86 26.6708 12.86 26.5078Z" fill="#2EB3D0"/>
</g>
</svg>
